<svg width="21" height="21" viewBox="0 0 21 21" fill="none" xmlns="http://www.w3.org/2000/svg">
<path d="M12.1667 8.25V10.6667H14.3333C14.5 10.6667 14.5833 10.8333 14.5833 11L14.25 12.5833C14.25 12.6667 14.0833 12.75 14 12.75H12.1667V18.8333H9.66667V12.8333H8.25C8.08333 12.8333 8 12.75 8 12.5833V11C8 10.8333 8.08333 10.75 8.25 10.75H9.66667V8C9.66667 6.58333 10.75 5.5 12.1667 5.5H14.4167C14.5833 5.5 14.6667 5.58333 14.6667 5.75V7.75C14.6667 7.91667 14.5833 8 14.4167 8H12.4167C12.25 8 12.1667 8.08333 12.1667 8.25Z" stroke="#17191C" stroke-miterlimit="10" stroke-linecap="round"/>
<path d="M12.9993 18.8327H7.99935C3.83268 18.8327 2.16602 17.166 2.16602 12.9993V7.99935C2.16602 3.83268 3.83268 2.16602 7.99935 2.16602H12.9993C17.166 2.16602 18.8327 3.83268 18.8327 7.99935V12.9993C18.8327 17.166 17.166 18.8327 12.9993 18.8327Z" stroke="#17191C" stroke-linecap="round" stroke-linejoin="round"/>
</svg>
