<svg width="21" height="21" viewBox="0 0 21 21" fill="none" xmlns="http://www.w3.org/2000/svg">
<path d="M5.08377 2.16602H3.91711C3.08377 2.16602 2.66711 3.08268 3.25044 3.66602L8.00044 8.41602C9.33377 9.74935 11.5838 9.74935 12.9171 8.41602L17.6671 3.66602C18.3338 3.08268 17.9171 2.16602 17.0838 2.16602H15.9171C15.2504 2.16602 14.5838 2.41602 14.0838 2.91602L11.0838 5.91602C10.7504 6.24935 10.1671 6.24935 9.83377 5.91602L6.91711 2.91602C6.41711 2.41602 5.75044 2.16602 5.08377 2.16602Z" stroke="#17191C" stroke-miterlimit="10" stroke-linecap="round" stroke-linejoin="round"/>
<path d="M5.08337 18.834H3.9167C3.1667 18.834 2.75003 17.9173 3.33337 17.334L8.00003 12.584C9.33337 11.2507 11.5834 11.2507 12.9167 12.584L17.6667 17.334C18.25 17.9173 17.8334 18.834 17.0834 18.834H15.9167C15.25 18.834 14.5834 18.584 14.0834 18.084L11.0834 15.084C10.75 14.7507 10.1667 14.7507 9.83337 15.084L6.83337 18.084C6.4167 18.5007 5.75003 18.834 5.08337 18.834Z" stroke="#17191C" stroke-miterlimit="10" stroke-linecap="round" stroke-linejoin="round"/>
</svg>
