<svg width="21" height="21" viewBox="0 0 21 21" fill="none" xmlns="http://www.w3.org/2000/svg">
<path d="M6.24935 17.666C7.49935 18.416 8.99935 18.8327 10.4993 18.8327C15.0827 18.8327 18.8327 15.0827 18.8327 10.4993C18.8327 5.91602 15.0827 2.16602 10.4993 2.16602C5.91602 2.16602 2.16602 5.91602 2.16602 10.4993C2.16602 11.9993 2.58268 13.416 3.24935 14.666L2.60646 17.1387C2.41174 17.8876 3.10494 18.5644 3.849 18.3518L6.24935 17.666Z" stroke="#17191C" stroke-miterlimit="10" stroke-linecap="round" stroke-linejoin="round"/>
<path d="M14.25 12.8737C14.25 13.0087 14.22 13.1475 14.1561 13.2825C14.0923 13.4175 14.0096 13.545 13.9007 13.665C13.7167 13.8675 13.5139 14.0138 13.2848 14.1075C13.0595 14.2013 12.8153 14.25 12.5525 14.25C12.1694 14.25 11.76 14.16 11.3281 13.9763C10.8962 13.7925 10.4643 13.545 10.0362 13.2338C9.60428 12.9188 9.19492 12.57 8.80433 12.1837C8.4175 11.7937 8.06823 11.385 7.75651 10.9575C7.44855 10.53 7.20068 10.1025 7.02041 9.67875C6.84014 9.25125 6.75 8.8425 6.75 8.4525C6.75 8.1975 6.79507 7.95375 6.8852 7.72875C6.97534 7.5 7.11805 7.29 7.3171 7.1025C7.55746 6.86625 7.82036 6.75 8.09827 6.75C8.20343 6.75 8.30859 6.7725 8.40248 6.8175C8.50013 6.8625 8.5865 6.93 8.65411 7.0275L9.52541 8.25375C9.59301 8.3475 9.64184 8.43375 9.67564 8.51625C9.70944 8.595 9.72822 8.67375 9.72822 8.745C9.72822 8.835 9.70193 8.925 9.64935 9.01125C9.60053 9.0975 9.52917 9.1875 9.43903 9.2775L9.15361 9.57375C9.11229 9.615 9.09352 9.66375 9.09352 9.72375C9.09352 9.75375 9.09727 9.78 9.10478 9.81C9.11605 9.84 9.12732 9.8625 9.13483 9.885C9.20243 10.0087 9.31885 10.17 9.4841 10.365C9.6531 10.56 9.83337 10.7588 10.0287 10.9575C10.2315 11.1563 10.4268 11.34 10.6258 11.5087C10.8211 11.6737 10.9826 11.7862 11.1103 11.8537C11.1291 11.8612 11.1516 11.8725 11.1779 11.8837C11.2079 11.895 11.238 11.8987 11.2718 11.8987C11.3356 11.8987 11.3845 11.8763 11.4258 11.835L11.7112 11.5538C11.8051 11.46 11.8952 11.3887 11.9816 11.3438C12.068 11.2912 12.1544 11.265 12.2482 11.265C12.3196 11.265 12.3947 11.28 12.4773 11.3138C12.56 11.3475 12.6463 11.3963 12.7402 11.46L13.9834 12.3412C14.081 12.4087 14.1486 12.4875 14.1899 12.5812C14.2275 12.675 14.25 12.7687 14.25 12.8737Z" stroke="#17191C" stroke-miterlimit="10"/>
</svg>
