<svg width="196" height="300" viewBox="0 0 196 300" fill="none" xmlns="http://www.w3.org/2000/svg">
<path d="M105.034 254.006C105.034 254.006 105.736 266.244 102.084 276.652L135.118 300C135.118 300 137.604 292.827 133.892 284.668C130.18 276.508 128.596 270.258 130.17 262.132L105.034 254.006Z" fill="#FF5733"/>
<path d="M122.553 274.213L129.148 275.993" stroke="white" stroke-width="0.668486" stroke-miterlimit="10" stroke-linecap="round"/>
<path d="M153.965 243.387C153.965 243.387 161.526 257.95 168.74 259.813L195.974 235.725C195.974 235.725 192.937 229.292 181.967 233.109C181.967 233.109 179.231 234.404 175.285 232.698C173.414 231.891 171.503 230.269 169.662 227.345L153.965 243.387Z" fill="#FF5733"/>
<path d="M174.777 240.543L177.229 234.156" stroke="white" stroke-width="0.668486" stroke-miterlimit="10" stroke-linecap="round"/>
<path d="M183.638 179.646L156.863 167.513C155.024 166.679 152.858 167.497 152.026 169.338L139.909 196.148C139.076 197.989 139.892 200.158 141.732 200.991L168.507 213.125C170.346 213.958 172.511 213.141 173.344 211.299L185.461 184.489C186.294 182.648 185.477 180.479 183.638 179.646Z" stroke="#DADEEB" stroke-width="0.668486" stroke-miterlimit="10"/>
<path d="M154.041 142.174L130.088 145.854C129.896 145.883 129.699 145.868 129.513 145.812C129.327 145.756 129.156 145.66 129.012 145.53C128.867 145.4 128.754 145.239 128.678 145.06C128.603 144.88 128.569 144.686 128.577 144.492L132.356 128.37C132.488 127.807 132.788 127.297 133.216 126.909C133.644 126.521 134.18 126.272 134.752 126.195L159.086 122.937C159.272 122.905 159.464 122.922 159.642 122.986C159.82 123.049 159.979 123.157 160.104 123.298C160.229 123.44 160.316 123.612 160.357 123.797C160.397 123.982 160.39 124.174 160.336 124.355L155.354 141.033C155.266 141.328 155.096 141.592 154.863 141.794C154.63 141.996 154.345 142.128 154.041 142.174Z" fill="#BEDDFA"/>
<path d="M158.672 101.9C164.176 101.9 168.639 97.4317 168.639 91.92C168.639 86.4083 164.176 81.9402 158.672 81.9402C153.167 81.9402 148.705 86.4083 148.705 91.92C148.705 97.4317 153.167 101.9 158.672 101.9Z" fill="#FF5733"/>
<path d="M161.692 93.6131L156.149 95.8145C156.036 95.8612 155.912 95.8758 155.791 95.8567C155.669 95.8375 155.556 95.7854 155.462 95.7059C155.369 95.6264 155.299 95.5227 155.26 95.4062C155.222 95.2896 155.216 95.1646 155.244 95.045L156.66 88.5346C156.683 88.4134 156.739 88.3009 156.822 88.2095C156.905 88.1182 157.011 88.0515 157.129 88.0169C157.248 87.9823 157.373 87.981 157.492 88.0134C157.611 88.0457 157.719 88.1103 157.803 88.2L161.929 92.5124C162.009 92.5915 162.067 92.6893 162.099 92.7968C162.13 92.9043 162.135 93.0181 162.111 93.1276C162.087 93.2372 162.037 93.3391 161.964 93.4239C161.89 93.5087 161.797 93.5738 161.692 93.6131Z" fill="white"/>
<path d="M44.5027 75.2465C36.6458 83.6419 29.9653 93.068 24.6449 103.266C22.2134 107.85 20.1382 112.614 18.4377 117.517C16.8119 122.183 15.7845 127.037 15.3801 131.961C15.0383 136.658 15.3992 141.49 16.8339 145.996C18.1571 150.16 20.326 154.005 23.2044 157.289C26.0083 160.543 29.5745 163.048 33.5834 164.582C35.5499 165.309 37.6129 165.741 39.7056 165.864C40.5878 165.916 41.4689 165.949 42.3522 166.021C44.4066 166.221 46.4698 166.316 48.5338 166.306C51.1114 166.295 53.674 165.913 56.1434 165.173C58.9302 164.314 61.4944 162.853 63.6549 160.892C66.3954 158.378 68.3605 155.119 69.721 151.681C71.116 148.171 72.274 143.897 69.9177 140.527C67.7049 137.373 63.552 136.116 59.857 136.574C54.8509 137.199 50.8154 140.476 47.8329 144.371C45.2735 147.625 43.3911 151.36 42.2967 155.355C41.3411 158.942 40.9026 163.039 42.2884 166.581C43.0647 168.582 44.5658 170.223 46.0167 171.766C48.2975 174.177 50.8435 176.322 53.6059 178.16C57.5296 180.778 61.8689 182.709 66.4387 183.872C69.0619 184.522 71.7411 184.921 74.4399 185.062C74.9236 185.09 74.4091 184.309 74.4091 184.309C69.2275 184.032 64.1464 182.767 59.4387 180.582C53.7644 177.912 48.7477 174.023 44.7455 169.191C44.0101 168.33 43.4148 167.358 42.9814 166.311C42.378 164.63 42.1066 162.848 42.1822 161.063C42.2679 157.264 43.4002 153.441 45.0826 150.052C46.0521 148.128 47.2142 146.309 48.5511 144.621C50.0983 142.569 51.9889 140.801 54.1391 139.395C57.8198 137.089 62.6585 136.322 66.5723 138.523C67.8852 139.23 68.9727 140.293 69.7105 141.59C70.5456 143.134 70.6786 144.95 70.4399 146.669C70.1236 148.824 69.306 150.933 68.3972 152.9C67.638 154.582 66.696 156.175 65.5883 157.651C63.7657 160.071 61.402 162.03 58.6868 163.371C56.3463 164.475 53.831 165.16 51.2547 165.395C49.0237 165.599 46.7794 165.611 44.5464 165.431C43.6539 165.369 42.7649 165.286 41.8771 165.215C40.8371 165.133 39.7879 165.132 38.7515 165.021C34.6438 164.527 30.7542 162.898 27.5181 160.317C24.1945 157.681 21.4753 154.36 19.5448 150.58C17.5329 146.614 16.3628 142.274 16.1081 137.834C15.8345 133.065 16.2837 128.283 17.4402 123.649C18.6041 118.957 20.2028 114.383 22.2154 109.989C24.4692 104.986 27.0514 100.138 29.945 95.4766C32.8956 90.7172 36.1599 86.1601 39.7161 81.8356C41.4288 79.7539 43.2071 77.7294 45.051 75.7621C45.1095 75.6878 45.1379 75.5943 45.1309 75.5C45.1238 75.4057 45.0817 75.3175 45.0128 75.2527C44.944 75.188 44.8534 75.1515 44.759 75.1503C44.6645 75.1491 44.5731 75.1835 44.5027 75.2465Z" fill="#DADEEB"/>
<path d="M121.182 75.1288L128.506 72.4724" stroke="#DADEEB" stroke-width="0.668486" stroke-miterlimit="10" stroke-linecap="round"/>
<path d="M120.475 78.3538L128.213 79.2638" stroke="#DADEEB" stroke-width="0.668486" stroke-miterlimit="10" stroke-linecap="round"/>
<path d="M171.778 226.19C157.976 200.764 140.184 183.669 131.26 175.104C129.886 173.786 128.199 172.163 127.621 171.534C123.348 167.322 122.91 159.423 122.91 159.423L101.73 165.987C101.728 165.965 101.728 165.943 101.73 165.92C101.73 165.947 101.73 165.967 101.713 165.987L101.546 166.037L73.2363 158.677C72.568 161.173 67.3257 183.565 82.3076 200.647C85.5118 204.304 90.8511 213.638 95.5521 226.247C100.23 238.77 102.716 246.722 102.716 255.14L135.099 265.681C135.099 249.529 126.535 225.17 123.1 215.953C120.914 210.046 118.4 204.266 115.569 198.64C125.346 208.268 140.361 224.718 150.147 249.007C150.161 248.994 172.985 228.415 171.778 226.19Z" fill="#13101E"/>
<path d="M104.557 248.505L128.526 256.595" stroke="#E6E6E6" stroke-width="0.668486" stroke-miterlimit="10" stroke-linecap="round"/>
<path d="M168.907 221.109C168.907 221.109 160.257 232.738 153.4 238.214" stroke="#E6E6E6" stroke-width="0.668486" stroke-miterlimit="10" stroke-linecap="round"/>
<path d="M114.763 197.031C114.763 197.031 110.389 188.724 107.412 184.966L110.182 180.554" stroke="#E6E6E6" stroke-width="0.668486" stroke-miterlimit="10" stroke-linecap="round"/>
<path d="M83.2051 52.6053L48.9902 58.776C47.4258 59.0576 45.8125 58.7608 44.4502 57.9408C43.088 57.1207 42.0695 55.8332 41.5841 54.3176L33.7531 29.7902C33.4942 28.9859 33.4108 28.1353 33.5084 27.2959C33.606 26.4565 33.8825 25.6479 34.319 24.9247C34.7556 24.2014 35.3421 23.5805 36.0389 23.1037C36.7357 22.6269 37.5266 22.3054 38.3581 22.161L83.1262 14.3135C83.907 14.1775 84.7079 14.2127 85.4737 14.4167C86.2395 14.6206 86.9521 14.9884 87.5622 15.4948C88.1723 16.0012 88.6655 16.634 89.0077 17.3497C89.3499 18.0654 89.533 18.8469 89.5444 19.6403L89.9325 44.4139C89.9616 46.3559 89.3014 48.2451 88.0694 49.7452C86.8374 51.2453 85.1136 52.2589 83.2051 52.6053Z" fill="#BEDDFA"/>
<path d="M50.1566 51.4089L47.3738 54.4628C47.2923 54.5541 47.1873 54.6214 47.0703 54.6571C46.9533 54.6928 46.8287 54.6957 46.7102 54.6654C46.5916 54.6352 46.4837 54.5729 46.3981 54.4854C46.3124 54.3979 46.2524 54.2885 46.2246 54.1693L44.8188 49.7325C44.7912 49.6457 44.7875 49.553 44.8081 49.4643C44.8287 49.3756 44.8729 49.2941 44.936 49.2285C44.9991 49.1628 45.0788 49.1155 45.1666 49.0915C45.2543 49.0675 45.3469 49.0677 45.4346 49.0921L49.8896 50.321C49.9944 50.3578 50.0884 50.4203 50.163 50.5026C50.2376 50.585 50.2906 50.6846 50.3171 50.7926C50.3436 50.9006 50.3428 51.0135 50.3148 51.1211C50.2868 51.2287 50.2324 51.3276 50.1566 51.4089Z" fill="white"/>
<path d="M68.7177 48.017L65.1604 48.6768L53.5162 50.8346C53.4298 50.8506 53.3412 50.8494 53.2553 50.8312C53.1694 50.8129 53.088 50.7779 53.0156 50.728C52.9433 50.6782 52.8815 50.6146 52.8337 50.5409C52.7859 50.4671 52.7531 50.3847 52.7371 50.2982C52.7057 50.1243 52.7442 49.9449 52.8444 49.7994C52.9446 49.6538 53.0982 49.5538 53.2717 49.5213L64.9551 47.3519L68.5948 46.6775C68.7773 47.0995 68.8203 47.5688 68.7177 48.017Z" fill="white"/>
<path d="M68.658 48.2261C68.506 48.7295 68.1627 49.1532 67.7021 49.4058C67.2414 49.6585 66.7002 49.72 66.1947 49.5771C65.745 49.4252 65.3734 49.1015 65.1607 48.6766C64.9489 48.2703 64.8789 47.8047 64.9618 47.354C65.0055 47.0695 65.108 46.7973 65.2626 46.5546C65.4173 46.312 65.6207 46.1044 65.86 45.9449C66.0993 45.7854 66.3691 45.6777 66.6523 45.6285C66.9355 45.5793 67.2258 45.5897 67.5047 45.6592C67.7486 45.7429 67.9722 45.8769 68.161 46.0527C68.3499 46.2284 68.4997 46.4419 68.6009 46.6793C68.7808 47.1014 68.8216 47.5698 68.7174 48.0167C68.7015 48.0854 68.6813 48.1563 68.658 48.2261Z" fill="white"/>
<path d="M85.2945 44.9412L68.717 48.0171C68.8211 47.5703 68.7803 47.1018 68.6004 46.6797L85.0501 43.6279C85.1385 43.6059 85.2304 43.6022 85.3203 43.6171C85.4102 43.632 85.496 43.6651 85.5727 43.7144C85.6493 43.7638 85.715 43.8283 85.7659 43.904C85.8167 43.9797 85.8515 44.065 85.8682 44.1546C85.8849 44.2443 85.8831 44.3364 85.8629 44.4254C85.8427 44.5143 85.8046 44.5982 85.7509 44.6719C85.6972 44.7455 85.629 44.8074 85.5505 44.8537C85.472 44.9 85.3849 44.9298 85.2945 44.9412Z" fill="#CBE6FF"/>
<path d="M108.26 103.315C108.26 103.315 112.48 106.051 124.902 131.1C127.291 135.914 130.816 139.818 143.499 141.862L131.354 155.84C131.354 155.84 112.019 150.199 110.365 140.858C108.711 131.518 108.26 103.315 108.26 103.315Z" fill="#00A6FB"/>
<path d="M118.28 127.594C117.174 117.129 113.014 106.798 106.619 101.9C102.389 98.6613 98.2396 98.0825 92.5563 98.0825C78.5767 98.0825 65.9803 113.683 62.5857 130.638C61.7174 133.68 61.4753 136.867 61.874 140.006C62.569 147.884 66.9493 153.957 72.9634 157.908C88.7005 169.366 115.664 162.491 115.664 162.491C119.443 147.436 119.296 135.546 118.28 127.594Z" fill="#00A6FB"/>
<path d="M109.352 110.582C109.352 110.582 118.039 124.653 112.131 153.712" stroke="#E6E6E6" stroke-width="0.668486" stroke-miterlimit="10" stroke-linecap="round"/>
<path d="M150.448 135.469C150.676 135.483 150.898 135.549 151.096 135.664C151.294 135.779 151.462 135.939 151.587 136.13C151.712 136.322 151.79 136.54 151.816 136.767C151.842 136.995 151.814 137.225 151.735 137.44L144.173 160.879C144.048 161.295 143.812 161.669 143.49 161.96C143.168 162.251 142.772 162.449 142.346 162.531L109.936 168.289C109.817 168.309 109.696 168.318 109.575 168.316C109.344 168.304 109.117 168.245 108.909 168.142C108.701 168.039 108.516 167.895 108.366 167.718C108.215 167.541 108.103 167.335 108.035 167.112C107.967 166.89 107.946 166.656 107.972 166.426L113.905 143.779C114.104 142.995 114.525 142.285 115.118 141.734C115.711 141.184 116.45 140.817 117.247 140.678L150.124 135.509C150.23 135.483 150.339 135.47 150.448 135.469Z" fill="#FFD550"/>
<path d="M149.672 134.9C149.488 134.801 149.284 134.746 149.074 134.74C148.962 134.735 148.85 134.744 148.74 134.766L115.863 139.935C115.067 140.074 114.327 140.441 113.734 140.992C113.142 141.542 112.72 142.252 112.522 143.037L106.591 165.683C106.556 166.022 106.622 166.365 106.781 166.667C106.94 166.969 107.184 167.218 107.483 167.382L108.856 168.112C108.557 167.948 108.312 167.699 108.154 167.397C107.995 167.094 107.929 166.752 107.964 166.412L113.898 143.766C114.097 142.981 114.518 142.271 115.111 141.721C115.704 141.171 116.443 140.804 117.239 140.665L150.117 135.496C150.431 135.433 150.758 135.479 151.042 135.626L149.672 134.9Z" fill="#FFB444"/>
<path d="M92.0546 149.269C92.0546 149.269 98.9308 145.108 103.929 143.365C108.928 141.621 113.532 140.708 114.467 141.3C115.156 141.732 115.664 144.455 111.427 147.935C111.427 147.935 115.266 149.296 118.894 149.273C122.339 149.246 125.122 149.243 125.881 152.284C126.005 152.779 125.827 153.572 125.413 154.542C124.615 156.264 123.605 157.879 122.406 159.35C121.409 160.609 120.32 161.793 119.148 162.893C115.707 166.104 111.437 168.58 107.518 167.841C102.213 166.831 97.0312 165.261 92.0579 163.157C92.0579 163.157 84.3097 160.935 92.0546 149.269Z" fill="#F3ABAA"/>
<path d="M119.948 155.466C119.026 155.47 118.104 155.414 117.189 155.299C117.145 155.293 117.102 155.278 117.064 155.256C117.026 155.234 116.992 155.204 116.965 155.169C116.911 155.097 116.888 155.008 116.9 154.919C116.911 154.83 116.958 154.75 117.029 154.696C117.1 154.641 117.19 154.617 117.279 154.629C117.319 154.629 121.288 155.171 124.469 154.218C124.511 154.205 124.555 154.201 124.599 154.206C124.643 154.21 124.685 154.224 124.724 154.245C124.762 154.266 124.796 154.294 124.824 154.328C124.852 154.362 124.872 154.402 124.885 154.444C124.898 154.486 124.902 154.53 124.897 154.574C124.892 154.618 124.879 154.66 124.858 154.699C124.837 154.737 124.809 154.772 124.775 154.799C124.741 154.827 124.702 154.848 124.659 154.86C123.125 155.282 121.539 155.486 119.948 155.466Z" fill="#FF5733"/>
<path d="M119.469 159.758C118.627 159.758 117.552 159.721 116.205 159.614C116.161 159.611 116.118 159.599 116.079 159.579C116.04 159.559 116.005 159.531 115.976 159.497C115.948 159.464 115.926 159.425 115.913 159.383C115.899 159.341 115.894 159.297 115.898 159.253C115.905 159.165 115.948 159.083 116.015 159.026C116.083 158.969 116.17 158.941 116.258 158.948C120.144 159.256 121.751 158.948 121.768 158.948C121.855 158.932 121.945 158.95 122.018 159C122.091 159.049 122.142 159.126 122.159 159.213C122.176 159.299 122.158 159.389 122.109 159.462C122.06 159.535 121.985 159.586 121.898 159.604C121.095 159.727 120.282 159.779 119.469 159.758Z" fill="#FF5733"/>
<path d="M114.312 163.11H113.434C113.345 163.11 113.26 163.075 113.197 163.012C113.135 162.949 113.1 162.864 113.1 162.776C113.1 162.687 113.135 162.602 113.197 162.539C113.26 162.476 113.345 162.441 113.434 162.441C117.109 162.508 118.309 162.153 118.319 162.15C118.403 162.123 118.495 162.131 118.574 162.173C118.652 162.214 118.711 162.284 118.738 162.369C118.764 162.454 118.756 162.546 118.715 162.624C118.674 162.703 118.604 162.762 118.519 162.789C118.472 162.796 117.426 163.11 114.312 163.11Z" fill="#FF5733"/>
<path d="M111.306 166.322C110.745 166.322 110.107 166.295 109.378 166.238C109.334 166.235 109.292 166.223 109.252 166.203C109.213 166.184 109.178 166.156 109.149 166.123C109.091 166.055 109.063 165.968 109.069 165.879C109.076 165.79 109.118 165.708 109.185 165.65C109.252 165.592 109.34 165.563 109.428 165.569C113.221 165.87 114.42 165.235 114.44 165.215C114.517 165.171 114.608 165.16 114.693 165.183C114.778 165.206 114.851 165.262 114.895 165.338C114.939 165.415 114.951 165.505 114.929 165.59C114.908 165.675 114.853 165.748 114.778 165.793C114.731 165.82 113.862 166.322 111.306 166.322Z" fill="#FF5733"/>
<path d="M76.3091 105.236C76.3091 105.236 60.6288 116.697 55.901 142.615C55.901 142.615 54.6614 149.608 58.8279 153.104C62.9944 156.6 77.0107 163.87 94.8494 164.288C94.8494 164.288 86.7704 160.093 92.0562 149.27C92.0562 149.27 81.2374 145.322 78.3105 141.15C75.3836 136.978 84.0774 124.81 84.0774 124.81C84.0774 124.81 95.2704 89.8427 76.3091 105.236Z" fill="#00A6FB"/>
<path d="M81.1676 123.696C81.1676 123.696 75.2871 138.249 79.3567 142.234C80.8435 143.692 83.5733 146.081 91.2914 148.978" stroke="#E6E6E6" stroke-width="0.668486" stroke-miterlimit="10" stroke-linecap="round"/>
<path d="M132.271 149.092C133.942 148.855 135.278 150.236 135.241 152.174C135.205 154.111 133.805 155.88 132.124 156.118C130.443 156.355 129.117 154.97 129.157 153.03C129.197 151.09 130.594 149.33 132.271 149.092Z" fill="white"/>
<path d="M151.514 138.25C151.514 138.25 162.302 148.852 147.264 160.875C147.264 160.875 140.177 164.776 136.635 159.969C136.635 159.969 134.667 154.997 139.388 150.31C140.155 149.366 141.162 148.645 142.302 148.223C144.036 147.671 148.286 145.546 149.389 143.964C150.491 142.381 151.514 138.25 151.514 138.25Z" fill="#F3ABAA"/>
<path d="M140.841 152.95C140.245 152.979 139.654 152.823 139.151 152.502C138.916 152.339 138.723 152.125 138.585 151.876C138.447 151.626 138.368 151.348 138.355 151.063C138.355 150.974 138.391 150.889 138.453 150.826C138.516 150.764 138.601 150.728 138.69 150.728C138.778 150.728 138.863 150.764 138.926 150.826C138.989 150.889 139.024 150.974 139.024 151.063C139.036 151.242 139.09 151.417 139.18 151.572C139.27 151.728 139.395 151.86 139.545 151.96C140.08 152.328 141.266 152.568 143.855 151.625C146.662 150.585 147.173 150.153 147.22 150.106C147.273 150.043 147.348 150.001 147.43 149.99C147.512 149.979 147.596 149.999 147.664 150.046C147.737 150.096 147.787 150.173 147.804 150.26C147.82 150.348 147.801 150.438 147.751 150.511C147.647 150.668 147.083 151.147 144.076 152.251C143.045 152.666 141.951 152.903 140.841 152.95Z" fill="#FF5733"/>
<path d="M139.838 156.382C137.165 156.382 136.497 154.311 136.497 154.288C136.471 154.203 136.48 154.112 136.521 154.033C136.562 153.955 136.633 153.896 136.718 153.87C136.802 153.844 136.894 153.852 136.972 153.894C137.051 153.935 137.109 154.006 137.135 154.091C137.165 154.188 137.904 156.359 141.265 155.523C143.911 154.853 144.606 154.539 144.606 154.539C144.685 154.503 144.775 154.499 144.857 154.527C144.939 154.556 145.006 154.616 145.045 154.694C145.084 154.772 145.091 154.862 145.064 154.945C145.038 155.027 144.98 155.097 144.904 155.138C144.877 155.138 144.192 155.472 141.432 156.172C140.912 156.307 140.376 156.378 139.838 156.382Z" fill="#FF5733"/>
<path d="M139.929 160.022C139.213 160.032 138.501 159.898 137.838 159.627C137.174 159.356 136.572 158.955 136.067 158.447C136.038 158.413 136.016 158.374 136.003 158.333C135.989 158.291 135.984 158.247 135.987 158.203C135.991 158.159 136.003 158.117 136.023 158.077C136.043 158.038 136.07 158.003 136.103 157.975C136.17 157.918 136.257 157.89 136.345 157.897C136.432 157.904 136.514 157.945 136.571 158.012C136.658 158.109 138.679 160.353 142.368 158.828C142.45 158.794 142.542 158.794 142.624 158.827C142.706 158.861 142.772 158.926 142.806 159.009C142.84 159.091 142.84 159.183 142.806 159.265C142.772 159.347 142.707 159.413 142.625 159.447C141.773 159.815 140.857 160.011 139.929 160.022Z" fill="#FF5733"/>
<path d="M106.609 81.5151C104.908 85.2755 105.199 89.0828 107.261 90.0162C109.322 90.9496 113.054 88.5241 114.695 84.7335C116.576 80.3843 115.477 77.3265 113.415 76.3931C111.354 75.4597 108.3 77.7514 106.609 81.5151Z" fill="#FFB444"/>
<path d="M114.699 84.7356C116.17 81.4817 115.922 78.1911 114.145 77.3859C112.368 76.5806 109.735 78.5656 108.264 81.8195C106.794 85.0734 107.042 88.364 108.819 89.1692C110.596 89.9745 113.229 87.9894 114.699 84.7356Z" fill="#FFD550"/>
<path d="M102.951 91.2707L90.9994 85.416L86.4887 96.6838L85.3828 99.4406C89.8968 103.121 96.1315 102.907 99.4326 101.916C101.411 101.321 101.698 100.2 101.698 100.2C101.043 97.8648 102.951 91.2707 102.951 91.2707Z" fill="#F3ABAA"/>
<path d="M102.037 95.1148C102.441 93.0706 102.955 91.2707 102.955 91.2707L91.0039 85.416C91.0039 85.416 91.5953 92.8933 102.037 95.1148Z" fill="#13101E"/>
<path d="M101.305 91.9198C108.328 91.9198 114.021 85.846 114.021 78.3536C114.021 70.8612 108.328 64.7874 101.305 64.7874C94.2813 64.7874 88.5879 70.8612 88.5879 78.3536C88.5879 85.846 94.2813 91.9198 101.305 91.9198Z" fill="#F3ABAA"/>
<path d="M89.1954 73.9912C91.2002 68.5748 95.7241 64.7876 101.01 64.7876C108.133 64.7876 113.904 71.6594 113.904 80.137C113.904 80.5853 113.904 81.0302 113.857 81.4752L114.448 81.6525C114.615 80.6205 114.699 79.5766 114.699 78.5311C114.699 69.1636 108.123 61.5725 99.9975 61.5725C93.5423 61.5725 88.8613 64.0817 86.9902 73.3355L89.1954 73.9912Z" fill="#FFD550"/>
<path d="M119.66 67.561C119.66 63.6266 116.366 60.4383 112.309 60.4383C111.585 60.439 110.863 60.5426 110.168 60.7461C108.512 59.1876 106.407 58.1914 104.154 57.899C99.6696 57.3504 93.4316 59.3376 90.752 68.0528C90.4167 69.6748 90.3043 71.335 90.4179 72.9875C90.4179 72.9875 93.5118 74.8041 96.4788 71.6058C99.3723 68.4877 102.139 68.3606 103.632 69.478C105.637 70.9935 106.686 74.1618 112.299 74.6803C112.557 74.7348 112.824 74.7268 113.078 74.6569C113.814 76.7639 114.043 79.0152 113.746 81.2276C117.485 77.7449 118.153 73.7101 117.756 72.3284C118.975 71.041 119.656 69.3353 119.66 67.561Z" fill="#13101E"/>
<path d="M93.6316 77.3601C93.8722 81.4818 92.235 84.9278 89.9797 85.0549C87.7244 85.182 85.1049 81.5789 84.9311 77.4538C84.7307 72.7132 86.8523 70.2609 89.111 70.127C91.3696 69.9932 93.3911 73.2384 93.6316 77.3601Z" fill="#FFB444"/>
<path d="M88.8307 83.7151C90.7779 83.6017 92.1884 80.6193 91.9812 77.0537C91.774 73.4881 90.0276 70.6896 88.0804 70.8031C86.1332 70.9165 84.7227 73.8989 84.9298 77.4645C85.137 81.0301 86.8835 83.8286 88.8307 83.7151Z" fill="#FFD550"/>
<path d="M103.911 78.3182C104.237 77.3752 104.108 76.4747 103.623 76.307C103.138 76.1392 102.481 76.7676 102.156 77.7106C101.83 78.6535 101.959 79.554 102.444 79.7218C102.929 79.8896 103.586 79.2612 103.911 78.3182Z" fill="#13101E"/>
<path d="M111.485 80.3435C111.814 79.3957 111.685 78.4899 111.198 78.3205C110.711 78.151 110.049 78.782 109.72 79.7298C109.392 80.6777 109.52 81.5834 110.007 81.7529C110.494 81.9224 111.156 81.2914 111.485 80.3435Z" fill="#13101E"/>
<path d="M96.8582 82.3484C96.2269 83.2249 96.8248 85.4865 99.3001 85.627" stroke="#13101E" stroke-width="0.668486" stroke-miterlimit="10" stroke-linecap="round"/>
<path d="M106.699 80.1703L105.854 83.9107C105.83 84.0186 105.783 84.1203 105.718 84.2094C105.652 84.2985 105.569 84.3732 105.473 84.4287C105.378 84.4843 105.272 84.5195 105.162 84.5323C105.052 84.545 104.941 84.535 104.835 84.5028L103.967 84.2385" stroke="#13101E" stroke-width="0.668486" stroke-miterlimit="10" stroke-linecap="round"/>
</svg>
