<svg width="300" height="300" viewBox="0 0 300 300" fill="none" xmlns="http://www.w3.org/2000/svg">
<path d="M300 229.44H0V229.59H300V229.44Z" fill="#EBEBEB"/>
<path d="M269.94 239.094H250.068V239.244H269.94V239.094Z" fill="#EBEBEB"/>
<path d="M198.732 240.726H193.518V240.876H198.732V240.726Z" fill="#EBEBEB"/>
<path d="M249.468 233.526H237.954V233.676H249.468V233.526Z" fill="#EBEBEB"/>
<path d="M57.3906 234.534H31.4766V234.684H57.3906V234.534Z" fill="#EBEBEB"/>
<path d="M66.5353 234.534H62.7373V234.684H66.5353V234.534Z" fill="#EBEBEB"/>
<path d="M135.09 237.066H78.8818V237.216H135.09V237.066Z" fill="#EBEBEB"/>
<path d="M142.2 202.68H26.3458C25.4382 202.678 24.5683 202.317 23.9271 201.674C23.2859 201.032 22.9258 200.162 22.9258 199.254V36.396C22.9337 35.4936 23.2973 34.6308 23.9376 33.9949C24.578 33.3591 25.4434 33.0015 26.3458 33H142.2C143.108 33 143.98 33.361 144.622 34.0035C145.265 34.646 145.626 35.5174 145.626 36.426V199.254C145.626 200.163 145.265 201.034 144.622 201.677C143.98 202.319 143.108 202.68 142.2 202.68ZM26.3458 33.12C25.478 33.1216 24.6463 33.4674 24.0332 34.0816C23.4201 34.6958 23.0758 35.5282 23.0758 36.396V199.254C23.0758 200.122 23.4201 200.954 24.0332 201.568C24.6463 202.183 25.478 202.528 26.3458 202.53H142.2C143.068 202.528 143.9 202.183 144.515 201.569C145.129 200.955 145.474 200.122 145.476 199.254V36.396C145.474 35.5276 145.129 34.6953 144.515 34.0813C143.9 33.4672 143.068 33.1216 142.2 33.12H26.3458Z" fill="#EBEBEB"/>
<path d="M271.985 202.68H156.125C155.217 202.678 154.347 202.317 153.704 201.675C153.062 201.033 152.701 200.162 152.699 199.254V36.396C152.709 35.4931 153.074 34.6302 153.715 33.9946C154.356 33.3589 155.222 33.0015 156.125 33H271.985C272.887 33.0031 273.75 33.3613 274.389 33.997C275.029 34.6327 275.391 35.4947 275.399 36.396V199.254C275.399 200.161 275.04 201.03 274.4 201.672C273.76 202.314 272.892 202.677 271.985 202.68ZM156.125 33.12C155.257 33.1216 154.425 33.4672 153.81 34.0813C153.196 34.6953 152.851 35.5276 152.849 36.396V199.254C152.851 200.122 153.196 200.955 153.81 201.569C154.425 202.183 155.257 202.528 156.125 202.53H271.985C272.854 202.528 273.686 202.183 274.3 201.569C274.914 200.955 275.26 200.122 275.261 199.254V36.396C275.26 35.5276 274.914 34.6953 274.3 34.0813C273.686 33.4672 272.854 33.1216 271.985 33.12H156.125Z" fill="#EBEBEB"/>
<path d="M168.636 197.976H209.49L209.49 58.7339H168.636V197.976Z" fill="#FAFAFA"/>
<path d="M167.69 63.6781L210.434 63.6781V56.8441L167.69 56.8441V63.6781Z" fill="#F0F0F0"/>
<path d="M167.69 67.8479H210.434V64.4339H167.69V67.8479Z" fill="#F0F0F0"/>
<path d="M167.69 72.9179H210.434V69.5039H167.69V72.9179Z" fill="#F0F0F0"/>
<path d="M167.69 77.9941H210.434V74.5801H167.69V77.9941Z" fill="#F0F0F0"/>
<path d="M167.69 83.0639H210.434V79.6499H167.69V83.0639Z" fill="#F0F0F0"/>
<path d="M167.69 88.1339H210.434V84.7199H167.69V88.1339Z" fill="#F0F0F0"/>
<path d="M167.69 93.204H210.434V89.79H167.69V93.204Z" fill="#F0F0F0"/>
<path d="M167.69 98.274H210.434V94.86H167.69V98.274Z" fill="#F0F0F0"/>
<path d="M167.69 103.344H210.434V99.9301H167.69V103.344Z" fill="#F0F0F0"/>
<path d="M167.69 108.414H210.434V105H167.69V108.414Z" fill="#F0F0F0"/>
<path d="M167.69 113.484H210.434V110.07H167.69V113.484Z" fill="#F0F0F0"/>
<path d="M167.69 118.554H210.434V115.14H167.69V118.554Z" fill="#F0F0F0"/>
<path d="M167.69 123.624H210.434V120.21H167.69V123.624Z" fill="#F0F0F0"/>
<path d="M167.69 128.694H210.434V125.28H167.69V128.694Z" fill="#F0F0F0"/>
<path d="M167.69 133.764H210.434V130.35H167.69V133.764Z" fill="#F0F0F0"/>
<path d="M167.69 138.84H210.434V135.426H167.69V138.84Z" fill="#F0F0F0"/>
<path d="M167.69 143.91H210.434V140.496H167.69V143.91Z" fill="#F0F0F0"/>
<path d="M167.69 148.98H210.434V145.566H167.69V148.98Z" fill="#F0F0F0"/>
<path d="M167.69 154.05H210.434V150.636H167.69V154.05Z" fill="#F0F0F0"/>
<path d="M167.69 159.12H210.434V155.706H167.69V159.12Z" fill="#F0F0F0"/>
<path d="M167.69 164.19H210.434V160.776H167.69V164.19Z" fill="#F0F0F0"/>
<path d="M167.69 169.26H210.434V165.846H167.69V169.26Z" fill="#F0F0F0"/>
<path d="M167.69 174.33H210.434V170.916H167.69V174.33Z" fill="#F0F0F0"/>
<path d="M167.69 179.4H210.434V175.986H167.69V179.4Z" fill="#F0F0F0"/>
<path d="M167.69 184.47H210.434V181.056H167.69V184.47Z" fill="#F0F0F0"/>
<path d="M167.69 189.54H210.434V186.126H167.69V189.54Z" fill="#F0F0F0"/>
<path d="M167.69 194.616H210.434V191.202H167.69V194.616Z" fill="#F0F0F0"/>
<path d="M167.69 199.686H210.434V196.272H167.69V199.686Z" fill="#F0F0F0"/>
<path d="M219.696 197.976H260.55V58.7339H219.696V197.976Z" fill="#FAFAFA"/>
<path d="M218.747 63.6781L261.491 63.6781V56.8441L218.747 56.8441V63.6781Z" fill="#F0F0F0"/>
<path d="M218.747 67.8479H261.491V64.4339H218.747V67.8479Z" fill="#F0F0F0"/>
<path d="M218.747 72.9179H261.491V69.5039H218.747V72.9179Z" fill="#F0F0F0"/>
<path d="M218.747 77.9941H261.491V74.5801H218.747V77.9941Z" fill="#F0F0F0"/>
<path d="M218.747 83.0639H261.491V79.6499H218.747V83.0639Z" fill="#F0F0F0"/>
<path d="M218.747 88.1339H261.491V84.7199H218.747V88.1339Z" fill="#F0F0F0"/>
<path d="M218.747 93.204H261.491V89.79H218.747V93.204Z" fill="#F0F0F0"/>
<path d="M218.747 98.274H261.491V94.86H218.747V98.274Z" fill="#F0F0F0"/>
<path d="M218.747 103.344H261.491V99.9301H218.747V103.344Z" fill="#F0F0F0"/>
<path d="M218.747 108.414H261.491V105H218.747V108.414Z" fill="#F0F0F0"/>
<path d="M218.747 113.484H261.491V110.07H218.747V113.484Z" fill="#F0F0F0"/>
<path d="M218.747 118.554H261.491V115.14H218.747V118.554Z" fill="#F0F0F0"/>
<path d="M218.747 123.624H261.491V120.21H218.747V123.624Z" fill="#F0F0F0"/>
<path d="M218.747 128.694H261.491V125.28H218.747V128.694Z" fill="#F0F0F0"/>
<path d="M218.747 133.764H261.491V130.35H218.747V133.764Z" fill="#F0F0F0"/>
<path d="M218.747 138.84H261.491V135.426H218.747V138.84Z" fill="#F0F0F0"/>
<path d="M218.747 143.91H261.491V140.496H218.747V143.91Z" fill="#F0F0F0"/>
<path d="M218.747 148.98H261.491V145.566H218.747V148.98Z" fill="#F0F0F0"/>
<path d="M218.747 154.05H261.491V150.636H218.747V154.05Z" fill="#F0F0F0"/>
<path d="M218.747 159.12H261.491V155.706H218.747V159.12Z" fill="#F0F0F0"/>
<path d="M218.747 164.19H261.491V160.776H218.747V164.19Z" fill="#F0F0F0"/>
<path d="M218.747 169.26H261.491V165.846H218.747V169.26Z" fill="#F0F0F0"/>
<path d="M218.747 174.33H261.491V170.916H218.747V174.33Z" fill="#F0F0F0"/>
<path d="M218.747 179.4H261.491V175.986H218.747V179.4Z" fill="#F0F0F0"/>
<path d="M218.747 184.47H261.491V181.056H218.747V184.47Z" fill="#F0F0F0"/>
<path d="M218.747 189.54H261.491V186.126H218.747V189.54Z" fill="#F0F0F0"/>
<path d="M218.747 194.616H261.491V191.202H218.747V194.616Z" fill="#F0F0F0"/>
<path d="M218.747 199.686H261.491V196.272H218.747V199.686Z" fill="#F0F0F0"/>
<path d="M92.7251 198.828H133.579L133.579 59.586H92.7251L92.7251 198.828Z" fill="#FAFAFA"/>
<path d="M91.7746 64.53H134.519V57.696L91.7746 57.696V64.53Z" fill="#F0F0F0"/>
<path d="M91.7746 65.916H134.519V65.286H91.7746V65.916Z" fill="#F0F0F0"/>
<path d="M91.7746 67.3441H134.519V66.7141H91.7746V67.3441Z" fill="#F0F0F0"/>
<path d="M91.7746 68.7661H134.519V68.1361H91.7746V68.7661Z" fill="#F0F0F0"/>
<path d="M91.7746 70.1939H134.519V69.5639H91.7746V70.1939Z" fill="#F0F0F0"/>
<path d="M91.7746 71.622H134.519V70.992H91.7746V71.622Z" fill="#F0F0F0"/>
<path d="M91.7746 73.0499H134.519V72.4199H91.7746V73.0499Z" fill="#F0F0F0"/>
<path d="M91.7746 74.4721H134.519V73.8421H91.7746V74.4721Z" fill="#F0F0F0"/>
<path d="M91.7746 75.9H134.519V75.27H91.7746V75.9Z" fill="#F0F0F0"/>
<path d="M91.7746 77.334H134.519V76.704H91.7746V77.334Z" fill="#F0F0F0"/>
<path d="M91.7746 78.756H134.519V78.126H91.7746V78.756Z" fill="#F0F0F0"/>
<path d="M91.7746 80.1841H134.519V79.5541H91.7746V80.1841Z" fill="#F0F0F0"/>
<path d="M91.7746 81.6061H134.519V80.9761H91.7746V81.6061Z" fill="#F0F0F0"/>
<path d="M91.7746 83.0401H134.519V82.4101H91.7746V83.0401Z" fill="#F0F0F0"/>
<path d="M91.7746 84.4621H134.519V83.8321H91.7746V84.4621Z" fill="#F0F0F0"/>
<path d="M91.7746 85.89H134.519V85.26H91.7746V85.89Z" fill="#F0F0F0"/>
<path d="M91.7746 87.312H134.519V86.6819H91.7746V87.312Z" fill="#F0F0F0"/>
<path d="M91.7746 88.7401H134.519V88.11H91.7746V88.7401Z" fill="#F0F0F0"/>
<path d="M91.7746 90.1679H134.519V89.5379H91.7746V90.1679Z" fill="#F0F0F0"/>
<path d="M41.6577 198.828H82.5117L82.5117 59.586H41.6577L41.6577 198.828Z" fill="#FAFAFA"/>
<path d="M40.7091 64.53H83.4531V57.696L40.7091 57.696V64.53Z" fill="#F0F0F0"/>
<path d="M40.7091 65.916H83.4531V65.286H40.7091V65.916Z" fill="#F0F0F0"/>
<path d="M40.7091 67.3441H83.4531V66.7141H40.7091V67.3441Z" fill="#F0F0F0"/>
<path d="M40.7091 68.7661H83.4531V68.1361H40.7091V68.7661Z" fill="#F0F0F0"/>
<path d="M40.7091 70.1939H83.4531V69.5639H40.7091V70.1939Z" fill="#F0F0F0"/>
<path d="M40.7091 71.622H83.4531V70.992H40.7091V71.622Z" fill="#F0F0F0"/>
<path d="M40.7091 73.0499H83.4531V72.4199H40.7091V73.0499Z" fill="#F0F0F0"/>
<path d="M40.7091 74.4721H83.4531V73.8421H40.7091V74.4721Z" fill="#F0F0F0"/>
<path d="M40.7091 75.9H83.4531V75.27H40.7091V75.9Z" fill="#F0F0F0"/>
<path d="M40.7091 77.334H83.4531V76.704H40.7091V77.334Z" fill="#F0F0F0"/>
<path d="M40.7091 78.756H83.4531V78.126H40.7091V78.756Z" fill="#F0F0F0"/>
<path d="M40.7091 80.1841H83.4531V79.5541H40.7091V80.1841Z" fill="#F0F0F0"/>
<path d="M40.7091 81.6061H83.4531V80.9761H40.7091V81.6061Z" fill="#F0F0F0"/>
<path d="M40.7091 83.0401H83.4531V82.4101H40.7091V83.0401Z" fill="#F0F0F0"/>
<path d="M40.7091 84.4621H83.4531V83.8321H40.7091V84.4621Z" fill="#F0F0F0"/>
<path d="M40.7091 85.89H83.4531V85.26H40.7091V85.89Z" fill="#F0F0F0"/>
<path d="M40.7091 87.312H83.4531V86.6819H40.7091V87.312Z" fill="#F0F0F0"/>
<path d="M40.7091 88.7401H83.4531V88.11H40.7091V88.7401Z" fill="#F0F0F0"/>
<path d="M40.7091 90.1679H83.4531V89.5379H40.7091V90.1679Z" fill="#F0F0F0"/>
<path d="M150.721 216.18C150.721 216.18 147.877 209.97 151.129 203.844C154.381 197.718 155.329 196.284 153.247 195.03C151.165 193.776 150.247 199.926 150.247 199.926C149.219 197.145 149.113 194.107 149.947 191.262C151.387 186.834 152.293 179.622 150.325 178.848C148.357 178.074 149.947 187.848 148.237 191.178C147.366 188.839 146.804 186.396 146.563 183.912C146.329 180.354 146.695 174.678 145.141 173.22C143.587 171.762 142.591 172.77 144.115 180.618C145.034 185.309 145.542 190.071 145.633 194.85C145.633 194.85 142.261 184.554 139.993 184.254C137.725 183.954 137.725 187.29 139.669 190.182C141.613 193.074 145.351 198.252 145.963 200.922C145.963 200.922 142.255 193.17 138.919 195.522C135.583 197.874 141.823 202.578 144.607 204.27C147.391 205.962 149.293 216.6 149.293 216.6L150.721 216.18Z" fill="#E0E0E0"/>
<path d="M148.477 218.724C148.477 218.724 151.249 212.472 147.925 206.4C144.601 200.328 143.635 198.9 145.693 197.616C147.751 196.332 148.777 202.464 148.777 202.464C149.773 199.673 149.845 196.635 148.981 193.8C147.481 189.396 146.491 182.196 148.453 181.392C150.415 180.588 148.939 190.392 150.685 193.692C151.527 191.341 152.06 188.89 152.269 186.402C152.467 182.838 152.029 177.168 153.565 175.686C155.101 174.204 156.115 175.2 154.675 183.072C153.812 187.774 153.363 192.542 153.331 197.322C153.331 197.322 156.583 186.978 158.845 186.642C161.107 186.306 161.149 189.642 159.241 192.564C157.333 195.486 153.655 200.724 153.073 203.4C153.073 203.4 156.673 195.6 160.051 197.916C163.429 200.232 157.237 205.02 154.477 206.748C151.717 208.476 149.911 219.114 149.911 219.114L148.477 218.724Z" fill="#EBEBEB"/>
<path d="M161.255 214.266H138.359L140.213 230.652H159.401L161.255 214.266Z" fill="#EBEBEB"/>
<path d="M150.002 256.536C214.251 256.536 266.336 253.495 266.336 249.744C266.336 245.993 214.251 242.952 150.002 242.952C85.7525 242.952 33.668 245.993 33.668 249.744C33.668 253.495 85.7525 256.536 150.002 256.536Z" fill="#F5F5F5"/>
<path d="M233.196 181.686C233.196 181.686 218.346 178.686 204.012 180.138C189.678 181.59 210.756 200.322 210.756 200.322H213.72C213.72 200.322 202.548 188.448 203.172 185.49C203.796 182.532 231.924 186.432 231.924 186.432L233.196 181.686Z" fill="#263238"/>
<path opacity="0.2" d="M233.196 181.686C233.196 181.686 218.346 178.686 204.012 180.138C189.678 181.59 210.756 200.322 210.756 200.322H213.72C213.72 200.322 202.548 188.448 203.172 185.49C203.796 182.532 231.924 186.432 231.924 186.432L233.196 181.686Z" fill="white"/>
<path d="M227.837 199.674C232.523 181.323 235.239 162.525 235.937 143.598C236.008 141.798 236.773 140.096 238.072 138.848C239.37 137.6 241.102 136.902 242.903 136.902H255.401C257.244 136.902 259.012 137.632 260.318 138.931C261.625 140.231 262.363 141.995 262.373 143.838C262.421 155.238 261.623 180.762 255.173 199.674H227.837Z" fill="#263238"/>
<path opacity="0.4" d="M227.837 199.674C232.523 181.323 235.239 162.525 235.937 143.598C236.008 141.798 236.773 140.096 238.072 138.848C239.37 137.6 241.102 136.902 242.903 136.902H255.401C257.244 136.902 259.012 137.632 260.318 138.931C261.625 140.231 262.363 141.995 262.373 143.838C262.421 155.238 261.623 180.762 255.173 199.674H227.837Z" fill="white"/>
<path d="M224.191 196.5C226.219 188.82 230.791 168.96 231.757 142.722C231.831 140.771 232.659 138.924 234.067 137.57C235.474 136.216 237.352 135.461 239.305 135.462H252.853C254.849 135.464 256.763 136.255 258.177 137.664C259.592 139.073 260.391 140.984 260.401 142.98C260.455 155.316 259.591 180.546 252.631 201.048L226.831 200.1C226.403 200.08 225.985 199.965 225.608 199.763C225.23 199.561 224.903 199.276 224.65 198.931C224.397 198.586 224.224 198.188 224.145 197.768C224.065 197.347 224.081 196.914 224.191 196.5Z" fill="#00A6FB"/>
<path opacity="0.2" d="M224.191 196.5C226.219 188.82 230.791 168.96 231.757 142.722C231.831 140.771 232.659 138.924 234.067 137.57C235.474 136.216 237.352 135.461 239.305 135.462H252.853C254.849 135.464 256.763 136.255 258.177 137.664C259.592 139.073 260.391 140.984 260.401 142.98C260.455 155.316 259.591 180.546 252.631 201.048L226.831 200.1C226.403 200.08 225.985 199.965 225.608 199.763C225.23 199.561 224.903 199.276 224.65 198.931C224.397 198.586 224.224 198.188 224.145 197.768C224.065 197.347 224.081 196.914 224.191 196.5Z" fill="black"/>
<path d="M250.991 200.274H205.169V193.116C205.169 192.321 205.485 191.557 206.048 190.995C206.61 190.432 207.374 190.116 208.169 190.116H247.991C248.787 190.116 249.55 190.432 250.113 190.995C250.675 191.557 250.991 192.321 250.991 193.116V200.274Z" fill="#00A6FB"/>
<path d="M249.514 235.986L234.832 234.54V213.906H229.012V234.534L214.27 235.986C213.564 236.055 212.908 236.384 212.431 236.91C211.954 237.435 211.69 238.12 211.69 238.83V241.038H252.094V238.83C252.095 238.12 251.831 237.435 251.354 236.91C250.877 236.384 250.221 236.055 249.514 235.986Z" fill="#263238"/>
<path opacity="0.4" d="M249.514 235.986L234.832 234.54V213.906H229.012V234.534L214.27 235.986C213.564 236.055 212.908 236.384 212.431 236.91C211.954 237.435 211.69 238.12 211.69 238.83V241.038H252.094V238.83C252.095 238.12 251.831 237.435 251.354 236.91C250.877 236.384 250.221 236.055 249.514 235.986Z" fill="white"/>
<path d="M217.048 243.768C217.048 244.52 216.825 245.256 216.407 245.881C215.989 246.507 215.395 246.995 214.7 247.283C214.005 247.57 213.24 247.646 212.502 247.499C211.764 247.352 211.087 246.99 210.555 246.458C210.023 245.926 209.66 245.248 209.514 244.51C209.367 243.772 209.442 243.007 209.73 242.312C210.018 241.617 210.505 241.023 211.131 240.605C211.757 240.187 212.492 239.964 213.244 239.964C214.253 239.964 215.221 240.365 215.934 241.078C216.648 241.792 217.048 242.759 217.048 243.768Z" fill="#263238"/>
<path opacity="0.4" d="M213.244 245.772C212.848 245.772 212.46 245.655 212.131 245.434C211.801 245.214 211.544 244.901 211.393 244.535C211.241 244.169 211.201 243.766 211.279 243.377C211.356 242.988 211.547 242.631 211.827 242.351C212.107 242.071 212.465 241.88 212.853 241.803C213.242 241.725 213.645 241.765 214.011 241.917C214.377 242.068 214.69 242.325 214.91 242.655C215.131 242.984 215.248 243.372 215.248 243.768C215.247 244.299 215.035 244.808 214.66 245.183C214.284 245.559 213.775 245.771 213.244 245.772Z" fill="white"/>
<path d="M246.737 243.768C246.737 244.52 246.96 245.256 247.378 245.881C247.796 246.507 248.39 246.995 249.086 247.283C249.781 247.57 250.546 247.646 251.283 247.499C252.021 247.352 252.699 246.99 253.231 246.458C253.763 245.926 254.125 245.248 254.272 244.51C254.419 243.772 254.344 243.007 254.056 242.312C253.768 241.617 253.28 241.023 252.655 240.605C252.029 240.187 251.294 239.964 250.541 239.964C250.042 239.963 249.547 240.061 249.085 240.252C248.623 240.443 248.203 240.723 247.85 241.077C247.496 241.43 247.216 241.85 247.025 242.311C246.834 242.773 246.737 243.268 246.737 243.768Z" fill="#263238"/>
<path opacity="0.4" d="M250.541 245.772C250.145 245.772 249.757 245.655 249.428 245.434C249.098 245.214 248.841 244.901 248.69 244.535C248.538 244.169 248.498 243.766 248.576 243.377C248.653 242.988 248.844 242.631 249.124 242.351C249.404 242.071 249.761 241.88 250.15 241.803C250.539 241.725 250.942 241.765 251.308 241.917C251.674 242.068 251.987 242.325 252.207 242.655C252.428 242.984 252.545 243.372 252.545 243.768C252.545 244.3 252.334 244.809 251.958 245.185C251.582 245.561 251.073 245.772 250.541 245.772Z" fill="white"/>
<path d="M227.998 199.962H235.798V215.862C235.798 216.519 235.537 217.15 235.073 217.614C234.608 218.079 233.978 218.34 233.32 218.34H230.458C229.801 218.34 229.171 218.079 228.706 217.614C228.242 217.15 227.98 216.519 227.98 215.862V199.962H227.998Z" fill="#263238"/>
<path opacity="0.2" d="M227.998 199.962H235.798V215.862C235.798 216.519 235.537 217.15 235.073 217.614C234.608 218.079 233.978 218.34 233.32 218.34H230.458C229.801 218.34 229.171 218.079 228.706 217.614C228.242 217.15 227.98 216.519 227.98 215.862V199.962H227.998Z" fill="white"/>
<path d="M204.763 202.074H254.497C255.163 202.074 255.703 201.534 255.703 200.868V200.304C255.703 199.638 255.163 199.098 254.497 199.098H204.763C204.097 199.098 203.557 199.638 203.557 200.304V200.868C203.557 201.534 204.097 202.074 204.763 202.074Z" fill="#263238"/>
<g opacity="0.4">
<path d="M204.762 202.074H254.496C255.162 202.074 255.702 201.534 255.702 200.868V200.304C255.702 199.638 255.162 199.098 254.496 199.098H204.762C204.096 199.098 203.556 199.638 203.556 200.304V200.868C203.556 201.534 204.096 202.074 204.762 202.074Z" fill="white"/>
</g>
<path d="M259.595 181.686C259.595 181.686 244.745 178.686 230.411 180.138C216.077 181.59 237.155 200.322 237.155 200.322H240.119C240.119 200.322 228.947 188.448 229.571 185.49C230.195 182.532 258.323 186.432 258.323 186.432L259.595 181.686Z" fill="#263238"/>
<path opacity="0.4" d="M259.595 181.686C259.595 181.686 244.745 178.686 230.411 180.138C216.077 181.59 237.155 200.322 237.155 200.322H240.119C240.119 200.322 228.947 188.448 229.571 185.49C230.195 182.532 258.323 186.432 258.323 186.432L259.595 181.686Z" fill="white"/>
<path d="M76.3725 184.902V185.502H67.2285V185.04C67.2285 183.93 68.3805 183.018 69.8565 182.958H70.3425L73.4385 182.832C75.0345 182.754 76.3725 183.702 76.3725 184.902Z" fill="#263238"/>
<path opacity="0.2" d="M72.1605 184.902V185.502H67.2285V185.04C67.2285 183.93 68.3805 183.018 69.8565 182.958H70.3425C71.3985 183.234 72.1605 184.002 72.1605 184.902Z" fill="white"/>
<path d="M150.936 247.542H151.854C151.909 247.542 151.962 247.521 152.002 247.483C152.042 247.445 152.067 247.393 152.07 247.338L153.522 191.004H149.268L150.726 247.338C150.727 247.393 150.75 247.445 150.789 247.483C150.828 247.521 150.881 247.542 150.936 247.542Z" fill="#263238"/>
<path d="M183.745 247.542H185.869L179.869 191.004H175.615L183.745 247.542Z" fill="#263238"/>
<path d="M46.7875 247.542L54.9355 191.004H50.6875L44.6875 247.542H46.7875Z" fill="#263238"/>
<path d="M77.9332 247.542H80.3752H80.3812L81.2812 191.004H77.0332L77.9332 247.542Z" fill="#263238"/>
<g opacity="0.4">
<path d="M183.744 247.542H185.868L179.868 191.004H175.614L183.744 247.542Z" fill="white"/>
</g>
<path opacity="0.4" d="M77.9332 247.542H80.3752H80.3812L81.2812 191.004H77.0332L77.9332 247.542Z" fill="white"/>
<g opacity="0.2">
<path d="M150.936 247.542H151.854C151.909 247.542 151.962 247.521 152.002 247.483C152.042 247.445 152.067 247.393 152.07 247.338L153.522 191.004H149.268L150.726 247.338C150.727 247.393 150.75 247.445 150.789 247.483C150.828 247.521 150.881 247.542 150.936 247.542Z" fill="white"/>
</g>
<path opacity="0.2" d="M46.7875 247.542L54.9355 191.004H50.6875L44.6875 247.542H46.7875Z" fill="white"/>
<path d="M85.3369 185.82H97.4389L99.3649 168.924C99.3465 168.618 99.2121 168.331 98.989 168.122C98.7659 167.912 98.4711 167.795 98.1649 167.796H90.0709C89.7647 167.795 89.4699 167.912 89.2469 168.122C89.0238 168.331 88.8893 168.618 88.8709 168.924L85.3369 185.82Z" fill="#263238"/>
<path d="M66.8691 142.95H69.8691L73.2651 174.858H70.2651C70.0167 174.854 69.7783 174.76 69.594 174.593C69.4097 174.426 69.2922 174.199 69.2631 173.952L66.0591 143.856C66.0435 143.741 66.0528 143.625 66.0866 143.514C66.1204 143.404 66.1778 143.302 66.2548 143.216C66.3319 143.13 66.4267 143.061 66.5328 143.015C66.6388 142.969 66.7536 142.947 66.8691 142.95Z" fill="#263238"/>
<path d="M71.5434 174.858H116.819C116.935 174.86 117.049 174.837 117.155 174.79C117.26 174.744 117.355 174.676 117.431 174.59C117.508 174.504 117.566 174.403 117.6 174.292C117.634 174.182 117.644 174.066 117.629 173.952L114.425 143.856C114.395 143.61 114.277 143.383 114.093 143.216C113.909 143.05 113.671 142.955 113.423 142.95H68.1475C68.0319 142.947 67.9171 142.969 67.8111 143.015C67.705 143.061 67.6102 143.13 67.5332 143.216C67.4561 143.302 67.3987 143.404 67.365 143.514C67.3312 143.625 67.3218 143.741 67.3375 143.856L70.5354 173.952C70.567 174.199 70.6862 174.426 70.8712 174.592C71.0562 174.758 71.2948 174.853 71.5434 174.858Z" fill="#263238"/>
<path d="M84.8039 185.826H99.8459C100.164 185.826 100.422 185.568 100.422 185.25V185.088C100.422 184.77 100.164 184.512 99.8459 184.512H84.8039C84.4858 184.512 84.2279 184.77 84.2279 185.088V185.25C84.2279 185.568 84.4858 185.826 84.8039 185.826Z" fill="#263238"/>
<path opacity="0.2" d="M71.5434 174.858H116.819C116.935 174.86 117.049 174.837 117.155 174.79C117.26 174.744 117.355 174.676 117.431 174.59C117.508 174.504 117.566 174.403 117.6 174.292C117.634 174.182 117.644 174.066 117.629 173.952L114.425 143.856C114.395 143.61 114.277 143.383 114.093 143.216C113.909 143.05 113.671 142.955 113.423 142.95H68.1475C68.0319 142.947 67.9171 142.969 67.8111 143.015C67.705 143.061 67.6102 143.13 67.5332 143.216C67.4561 143.302 67.3987 143.404 67.365 143.514C67.3312 143.625 67.3218 143.741 67.3375 143.856L70.5354 173.952C70.567 174.199 70.6862 174.426 70.8712 174.592C71.0562 174.758 71.2948 174.853 71.5434 174.858Z" fill="white"/>
<path d="M72.3896 171.912H115.08C115.182 171.916 115.283 171.898 115.378 171.859C115.472 171.82 115.557 171.76 115.625 171.685C115.694 171.609 115.745 171.519 115.775 171.422C115.806 171.324 115.814 171.221 115.8 171.12L113.01 144.864C112.984 144.649 112.881 144.45 112.72 144.304C112.559 144.159 112.351 144.076 112.134 144.072H69.4256C69.3246 144.069 69.2241 144.089 69.1313 144.129C69.0384 144.169 68.9554 144.228 68.888 144.304C68.8207 144.379 68.7705 144.468 68.7411 144.565C68.7116 144.662 68.7036 144.764 68.7176 144.864L71.5136 171.12C71.5396 171.335 71.6426 171.534 71.8036 171.68C71.9645 171.825 72.1727 171.908 72.3896 171.912Z" fill="#00A6FB"/>
<path opacity="0.2" d="M84.8039 185.826H99.8459C100.164 185.826 100.422 185.568 100.422 185.25V185.088C100.422 184.77 100.164 184.512 99.8459 184.512H84.8039C84.4858 184.512 84.2279 184.77 84.2279 185.088V185.25C84.2279 185.568 84.4858 185.826 84.8039 185.826Z" fill="white"/>
<path opacity="0.2" d="M72.3896 171.912H115.08C115.182 171.916 115.283 171.898 115.378 171.859C115.472 171.82 115.557 171.76 115.625 171.685C115.694 171.609 115.745 171.519 115.775 171.422C115.806 171.324 115.814 171.221 115.8 171.12L113.01 144.864C112.984 144.649 112.881 144.45 112.72 144.304C112.559 144.159 112.351 144.076 112.134 144.072H69.4256C69.3246 144.069 69.2241 144.089 69.1313 144.129C69.0384 144.169 68.9554 144.228 68.888 144.304C68.8207 144.379 68.7705 144.468 68.7411 144.565C68.7116 144.662 68.7036 144.764 68.7176 144.864L71.5136 171.12C71.5396 171.335 71.6426 171.534 71.8036 171.68C71.9645 171.825 72.1727 171.908 72.3896 171.912Z" fill="black"/>
<path d="M85.0865 185.442H74.5745H48.2285V191.004H74.5745H85.0865H182.329V185.442H85.0865Z" fill="#00A6FB"/>
<path d="M112.356 184.44H113.484C113.513 184.44 113.541 184.434 113.567 184.424C113.593 184.413 113.617 184.397 113.637 184.377C113.657 184.357 113.673 184.333 113.684 184.307C113.695 184.28 113.7 184.252 113.7 184.224V183.024C113.7 182.996 113.695 182.968 113.684 182.941C113.673 182.915 113.657 182.891 113.637 182.871C113.617 182.851 113.593 182.835 113.567 182.824C113.541 182.814 113.513 182.808 113.484 182.808H112.674C112.627 182.808 112.581 182.824 112.544 182.854C112.507 182.883 112.481 182.924 112.47 182.97L112.152 184.17C112.143 184.202 112.141 184.235 112.147 184.267C112.153 184.3 112.166 184.33 112.186 184.357C112.206 184.383 112.232 184.404 112.261 184.419C112.291 184.433 112.323 184.44 112.356 184.44Z" fill="#00A6FB"/>
<path d="M110.796 184.44H111.924C111.981 184.44 112.036 184.417 112.077 184.377C112.117 184.336 112.14 184.281 112.14 184.224V183.024C112.14 182.967 112.117 182.912 112.077 182.871C112.036 182.831 111.981 182.808 111.924 182.808H111.114C111.067 182.808 111.021 182.824 110.984 182.854C110.947 182.883 110.921 182.924 110.91 182.97L110.586 184.17C110.578 184.202 110.577 184.235 110.584 184.268C110.59 184.3 110.604 184.331 110.625 184.357C110.645 184.383 110.671 184.404 110.701 184.418C110.73 184.433 110.763 184.44 110.796 184.44Z" fill="#00A6FB"/>
<path d="M109.236 184.44H110.364C110.393 184.44 110.421 184.434 110.447 184.424C110.473 184.413 110.497 184.397 110.517 184.377C110.537 184.357 110.553 184.333 110.564 184.307C110.575 184.28 110.58 184.252 110.58 184.224V183.024C110.58 182.996 110.575 182.968 110.564 182.941C110.553 182.915 110.537 182.891 110.517 182.871C110.497 182.851 110.473 182.835 110.447 182.824C110.421 182.814 110.393 182.808 110.364 182.808H109.554C109.507 182.809 109.46 182.825 109.423 182.854C109.385 182.883 109.357 182.924 109.344 182.97L109.026 184.17C109.018 184.202 109.017 184.235 109.024 184.268C109.031 184.3 109.045 184.331 109.065 184.357C109.085 184.383 109.111 184.404 109.141 184.418C109.171 184.433 109.203 184.44 109.236 184.44Z" fill="#00A6FB"/>
<path d="M107.675 184.44H108.803C108.86 184.44 108.915 184.417 108.955 184.377C108.996 184.336 109.019 184.281 109.019 184.224V183.024C109.019 182.967 108.996 182.912 108.955 182.871C108.915 182.831 108.86 182.808 108.803 182.808H107.999C107.951 182.809 107.905 182.825 107.867 182.854C107.829 182.883 107.802 182.924 107.789 182.97L107.471 184.17C107.463 184.201 107.462 184.234 107.468 184.266C107.474 184.298 107.488 184.328 107.508 184.354C107.527 184.38 107.552 184.401 107.581 184.416C107.61 184.431 107.642 184.439 107.675 184.44Z" fill="#00A6FB"/>
<path d="M106.115 184.44H107.243C107.301 184.44 107.356 184.417 107.396 184.377C107.437 184.336 107.459 184.281 107.459 184.224V183.024C107.459 182.967 107.437 182.912 107.396 182.871C107.356 182.831 107.301 182.808 107.243 182.808H106.433C106.386 182.809 106.339 182.825 106.301 182.854C106.264 182.883 106.236 182.924 106.223 182.97L105.905 184.17C105.897 184.202 105.896 184.235 105.903 184.268C105.91 184.3 105.924 184.331 105.944 184.357C105.964 184.383 105.99 184.404 106.02 184.418C106.05 184.433 106.082 184.44 106.115 184.44Z" fill="#00A6FB"/>
<path d="M104.556 184.44H105.684C105.741 184.44 105.796 184.417 105.836 184.377C105.877 184.336 105.9 184.281 105.9 184.224V183.024C105.9 182.967 105.877 182.912 105.836 182.871C105.796 182.831 105.741 182.808 105.684 182.808H104.874C104.826 182.809 104.78 182.825 104.742 182.854C104.704 182.883 104.677 182.924 104.664 182.97L104.346 184.17C104.337 184.202 104.337 184.235 104.343 184.268C104.35 184.3 104.364 184.331 104.384 184.357C104.405 184.383 104.431 184.404 104.46 184.418C104.49 184.433 104.523 184.44 104.556 184.44Z" fill="#00A6FB"/>
<path d="M102.995 184.44H104.123C104.18 184.44 104.235 184.417 104.276 184.377C104.316 184.336 104.339 184.281 104.339 184.224V183.024C104.339 182.967 104.316 182.912 104.276 182.871C104.235 182.831 104.18 182.808 104.123 182.808H103.313C103.265 182.808 103.218 182.824 103.18 182.853C103.142 182.882 103.115 182.923 103.103 182.97L102.785 184.17C102.777 184.202 102.776 184.235 102.783 184.268C102.79 184.3 102.804 184.331 102.824 184.357C102.844 184.383 102.87 184.404 102.9 184.418C102.93 184.433 102.962 184.44 102.995 184.44Z" fill="#00A6FB"/>
<path d="M101.436 184.44H102.564C102.592 184.44 102.62 184.434 102.646 184.424C102.672 184.413 102.696 184.397 102.716 184.377C102.736 184.357 102.752 184.333 102.763 184.307C102.774 184.28 102.78 184.252 102.78 184.224V183.024C102.78 182.996 102.774 182.968 102.763 182.941C102.752 182.915 102.736 182.891 102.716 182.871C102.696 182.851 102.672 182.835 102.646 182.824C102.62 182.814 102.592 182.808 102.564 182.808H101.754C101.706 182.808 101.659 182.824 101.621 182.853C101.583 182.882 101.556 182.923 101.544 182.97L101.226 184.17C101.217 184.202 101.217 184.235 101.223 184.268C101.23 184.3 101.244 184.331 101.264 184.357C101.285 184.383 101.311 184.404 101.34 184.418C101.37 184.433 101.403 184.44 101.436 184.44Z" fill="#00A6FB"/>
<path d="M99.8749 184.44H101.003C101.06 184.44 101.115 184.417 101.156 184.377C101.196 184.336 101.219 184.281 101.219 184.224V183.024C101.219 182.967 101.196 182.912 101.156 182.871C101.115 182.831 101.06 182.808 101.003 182.808H100.199C100.151 182.808 100.104 182.824 100.066 182.853C100.028 182.882 100.001 182.923 99.9889 182.97L99.6709 184.17C99.6628 184.201 99.6619 184.234 99.6682 184.266C99.6746 184.298 99.6881 184.328 99.7077 184.354C99.7273 184.38 99.7526 184.401 99.7815 184.416C99.8105 184.431 99.8424 184.439 99.8749 184.44Z" fill="#00A6FB"/>
<path d="M98.3155 184.44H99.4435C99.5008 184.44 99.5557 184.417 99.5962 184.377C99.6367 184.336 99.6595 184.281 99.6595 184.224V183.024C99.6595 182.967 99.6367 182.912 99.5962 182.871C99.5557 182.831 99.5008 182.808 99.4435 182.808H98.6335C98.5855 182.808 98.5387 182.824 98.5007 182.853C98.4627 182.882 98.4355 182.923 98.4235 182.97L98.1055 184.17C98.0972 184.202 98.0964 184.235 98.1031 184.268C98.1098 184.3 98.1239 184.331 98.1441 184.357C98.1644 184.383 98.1904 184.404 98.2201 184.418C98.2498 184.433 98.2825 184.44 98.3155 184.44Z" fill="#00A6FB"/>
<path d="M96.7549 184.44H97.8829C97.9402 184.44 97.9952 184.417 98.0357 184.377C98.0762 184.336 98.0989 184.281 98.0989 184.224V183.024C98.0989 182.967 98.0762 182.912 98.0357 182.871C97.9952 182.831 97.9402 182.808 97.8829 182.808H97.0729C97.0246 182.807 96.9774 182.822 96.9391 182.852C96.9009 182.881 96.874 182.923 96.8629 182.97L96.5449 184.17C96.5367 184.202 96.5359 184.236 96.5426 184.268C96.5493 184.3 96.5633 184.331 96.5836 184.357C96.6039 184.383 96.6299 184.404 96.6596 184.418C96.6893 184.433 96.7219 184.44 96.7549 184.44Z" fill="#00A6FB"/>
<path d="M95.1954 184.44H96.3234C96.3517 184.44 96.3798 184.434 96.406 184.424C96.4322 184.413 96.4561 184.397 96.4761 184.377C96.4962 184.357 96.5121 184.333 96.5229 184.307C96.5338 184.281 96.5394 184.252 96.5394 184.224V183.024C96.5394 182.996 96.5338 182.968 96.5229 182.941C96.5121 182.915 96.4962 182.891 96.4761 182.871C96.4561 182.851 96.4322 182.835 96.406 182.824C96.3798 182.814 96.3517 182.808 96.3234 182.808H95.5134C95.4651 182.807 95.4178 182.822 95.3796 182.852C95.3413 182.881 95.3144 182.923 95.3034 182.97L94.9854 184.17C94.9771 184.202 94.9763 184.236 94.983 184.268C94.9897 184.3 95.0037 184.331 95.024 184.357C95.0443 184.383 95.0703 184.404 95.1 184.418C95.1297 184.433 95.1623 184.44 95.1954 184.44Z" fill="#00A6FB"/>
<path d="M93.6348 184.44H94.7628C94.8201 184.44 94.8751 184.417 94.9156 184.377C94.9561 184.336 94.9788 184.281 94.9788 184.224V183.024C94.9788 182.967 94.9561 182.912 94.9156 182.871C94.8751 182.831 94.8201 182.808 94.7628 182.808H93.9528C93.9045 182.807 93.8573 182.822 93.819 182.852C93.7808 182.881 93.7539 182.923 93.7428 182.97L93.4248 184.17C93.4166 184.202 93.4158 184.236 93.4225 184.268C93.4292 184.3 93.4432 184.331 93.4635 184.357C93.4838 184.383 93.5097 184.404 93.5395 184.418C93.5692 184.433 93.6018 184.44 93.6348 184.44Z" fill="#00A6FB"/>
<path d="M92.0702 184.44H93.2042C93.2615 184.44 93.3164 184.417 93.3569 184.377C93.3974 184.336 93.4202 184.281 93.4202 184.224V183.024C93.4202 182.967 93.3974 182.912 93.3569 182.871C93.3164 182.831 93.2615 182.808 93.2042 182.808H92.4002C92.3519 182.807 92.3046 182.822 92.2664 182.852C92.2281 182.881 92.2012 182.923 92.1902 182.97L91.8722 184.17C91.8641 184.201 91.8631 184.234 91.8691 184.265C91.8751 184.296 91.8881 184.326 91.9071 184.352C91.926 184.378 91.9505 184.399 91.9787 184.414C92.0069 184.43 92.0382 184.438 92.0702 184.44Z" fill="#00A6FB"/>
<path d="M90.5087 184.44H91.6427C91.7 184.44 91.755 184.417 91.7955 184.377C91.836 184.336 91.8587 184.281 91.8587 184.224V183.024C91.8587 182.967 91.836 182.912 91.7955 182.871C91.755 182.831 91.7 182.808 91.6427 182.808H90.8267C90.7795 182.808 90.7336 182.824 90.6966 182.854C90.6595 182.883 90.6335 182.924 90.6227 182.97L90.3047 184.17C90.2966 184.201 90.2957 184.234 90.302 184.266C90.3084 184.298 90.3219 184.328 90.3415 184.354C90.3611 184.38 90.3864 184.401 90.4153 184.416C90.4443 184.431 90.4762 184.439 90.5087 184.44Z" fill="#00A6FB"/>
<path d="M89.377 185.508H114.625V183.63H89.377V185.508Z" fill="#263238"/>
<path opacity="0.2" d="M89.377 185.508H114.625V183.63H89.377V185.508Z" fill="white"/>
<path opacity="0.2" d="M89.3816 185.508H97.5596V183.63H89.3816V185.508Z" fill="white"/>
<path opacity="0.2" d="M74.5751 190.998H182.329V185.436H74.5751V190.998Z" fill="white"/>
<path d="M52.9483 238.506C53.0244 238.348 53.0612 238.173 53.0557 237.998C53.0501 237.822 53.0023 237.651 52.9164 237.498C52.8304 237.345 52.7088 237.215 52.5619 237.119C52.4149 237.022 52.247 236.963 52.0723 236.946C52.2233 236.497 52.2335 236.013 52.1016 235.558C51.9697 235.104 51.702 234.7 51.3343 234.402C51.2474 234.32 51.1354 234.269 51.0163 234.258C50.8871 234.269 50.765 234.322 50.6683 234.408L48.6283 235.872C48.4659 235.974 48.3285 236.111 48.2263 236.274C47.8063 237.078 49.3123 238.116 48.6943 238.782C48.5143 238.974 48.2323 239.01 48.0103 239.148C47.5243 239.454 47.4643 240.12 47.2423 240.648C47.0203 241.176 46.2223 241.578 45.9223 241.092C46.1443 240.588 45.4723 240.156 44.9263 240.09C44.3803 240.024 43.8043 239.994 43.5043 239.49C42.7243 240.168 40.9843 238.29 41.0263 237.51C40.7226 237.568 40.4444 237.718 40.2296 237.941C40.0148 238.163 39.8739 238.446 39.8263 238.752C39.7382 239.384 39.7161 240.023 39.7603 240.66C39.7603 241.896 39.3403 243.108 39.3643 244.344C39.3643 245.304 39.7543 246.372 40.6303 246.744C41.0684 246.9 41.5347 246.961 41.9983 246.924L52.0303 246.858C52.272 246.878 52.515 246.839 52.7383 246.744C53.1883 246.51 53.2843 245.916 53.3383 245.406L53.8783 238.866L52.9483 238.506Z" fill="#00A6FB"/>
<path opacity="0.3" d="M52.9483 238.506C53.0244 238.348 53.0612 238.173 53.0557 237.998C53.0501 237.822 53.0023 237.651 52.9164 237.498C52.8304 237.345 52.7088 237.215 52.5619 237.119C52.4149 237.022 52.247 236.963 52.0723 236.946C52.2233 236.497 52.2335 236.013 52.1016 235.558C51.9697 235.104 51.702 234.7 51.3343 234.402C51.2474 234.32 51.1354 234.269 51.0163 234.258C50.8871 234.269 50.765 234.322 50.6683 234.408L48.6283 235.872C48.4659 235.974 48.3285 236.111 48.2263 236.274C47.8063 237.078 49.3123 238.116 48.6943 238.782C48.5143 238.974 48.2323 239.01 48.0103 239.148C47.5243 239.454 47.4643 240.12 47.2423 240.648C47.0203 241.176 46.2223 241.578 45.9223 241.092C46.1443 240.588 45.4723 240.156 44.9263 240.09C44.3803 240.024 43.8043 239.994 43.5043 239.49C42.7243 240.168 40.9843 238.29 41.0263 237.51C40.7226 237.568 40.4444 237.718 40.2296 237.941C40.0148 238.163 39.8739 238.446 39.8263 238.752C39.7382 239.384 39.7161 240.023 39.7603 240.66C39.7603 241.896 39.3403 243.108 39.3643 244.344C39.3643 245.304 39.7543 246.372 40.6303 246.744C41.0684 246.9 41.5347 246.961 41.9983 246.924L52.0303 246.858C52.272 246.878 52.515 246.839 52.7383 246.744C53.1883 246.51 53.2843 245.916 53.3383 245.406L53.8783 238.866L52.9483 238.506Z" fill="white"/>
<path d="M53.5308 227.904H37.9668L38.0928 229.476L38.1828 230.598L38.4228 233.52L38.5608 235.2L38.7408 237.438L38.8128 238.392V238.68L38.9028 239.808L39.0288 241.35L39.1008 242.304L39.1848 243.282L39.2748 244.404L39.3468 245.256L39.4188 246.216L39.4548 246.636H53.7708V246.216L53.8488 245.262L53.9208 244.404L54.0108 243.276L54.0888 242.304L54.1668 241.35L54.2928 239.802L54.3828 238.68V238.392L54.4548 237.438L54.6408 235.2L54.7728 233.526L55.0068 230.598L55.1028 229.476L55.2288 227.904H53.5308ZM54.4668 228.936L54.1668 228.636H54.4908L54.4668 228.936ZM54.3888 229.89L54.3588 230.268L52.9668 231.666L51.3708 230.064L52.7988 228.636H53.1348L54.3888 229.89ZM53.9868 234.87L52.9668 235.89L51.3708 234.294L52.9668 232.698L54.0708 233.802L53.9868 234.87ZM39.1788 233.802L40.2828 232.698L41.8788 234.294L40.2828 235.89L39.2628 234.87L39.1788 233.802ZM52.4508 232.2L50.8548 233.796L49.2588 232.2L50.8548 230.598L52.4508 232.2ZM49.9428 228.654H51.7428L50.8308 229.566L49.9428 228.654ZM50.3328 234.312L48.7428 235.908L47.1408 234.312L48.7428 232.716L50.3328 234.312ZM45.0288 236.4L46.6248 234.81L48.2208 236.4L46.6248 238.002L45.0288 236.4ZM46.1088 238.518L44.5068 240.114L42.9168 238.518L44.5128 236.922L46.1088 238.518ZM48.7428 236.922L50.3328 238.518L48.7428 240.114L47.1408 238.518L48.7428 236.922ZM46.6248 233.772L45.0288 232.2L46.6248 230.598L48.2208 232.2L46.6248 233.772ZM46.1088 234.288L44.5128 235.884L42.9168 234.288L44.5128 232.692L46.1088 234.288ZM42.3948 233.772L40.7988 232.2L42.3948 230.598L43.9908 232.2L42.3948 233.772ZM42.3948 234.81L43.9908 236.4L42.3948 238.002L40.7988 236.4L42.3948 234.81ZM43.9908 240.636L42.3948 242.226L40.7988 240.642L42.3948 239.04L43.9908 240.636ZM44.5068 241.146L46.1088 242.748L44.5128 244.344L42.9168 242.748L44.5068 241.146ZM45.0288 240.636L46.6248 239.034L48.2208 240.636L46.6248 242.226L45.0288 240.636ZM48.7428 241.146L50.3328 242.748L48.7428 244.344L47.1408 242.748L48.7428 241.146ZM50.8548 243.264L52.4508 244.86L51.4188 245.898H50.2908L49.2588 244.86L50.8548 243.264ZM49.2588 240.636L50.8548 239.034L52.4508 240.636L50.8548 242.226L49.2588 240.636ZM49.2588 236.4L50.8548 234.81L52.4508 236.4L50.8548 238.002L49.2588 236.4ZM50.3328 230.058L48.7428 231.66L47.1408 230.058L48.5988 228.636H48.9348L50.3328 230.058ZM46.6248 229.542L45.7128 228.63H47.5128L46.6248 229.542ZM46.1088 230.058L44.5128 231.66L42.9168 230.058L44.3448 228.63H44.6808L46.1088 230.058ZM43.3068 228.63L42.3948 229.542L41.4828 228.63H43.3068ZM40.4508 228.63L41.8788 230.058L40.2828 231.66L38.8908 230.262V229.884L40.1448 228.63H40.4508ZM39.0828 228.63L38.7828 228.924V228.63H39.0828ZM38.9808 231.39L39.7668 232.2L39.1008 232.866L38.9808 231.39ZM39.4188 236.748L39.3588 235.992L39.7668 236.4L39.4188 236.748ZM39.4968 237.708L40.2828 236.922L41.8788 238.518L40.2828 240.114L39.6348 239.472L39.4968 237.708ZM39.7308 240.666V240.6L39.7668 240.642L39.7308 240.672V240.666ZM40.0128 244.068L39.8088 241.62L40.2828 241.146L41.8788 242.748L40.2828 244.344L40.0128 244.068ZM40.1568 245.868L40.1268 245.502L40.2828 245.346L40.7988 245.868H40.1568ZM40.7988 244.866L42.3948 243.27L43.9908 244.866L42.9588 245.904H41.8308L40.7988 244.866ZM43.9908 245.904L44.5128 245.382L45.0348 245.904H43.9908ZM46.0608 245.904L45.0288 244.866L46.6248 243.27L48.2208 244.866L47.1888 245.904H46.0608ZM48.2208 245.904L48.7428 245.382L49.2588 245.904H48.2208ZM53.0928 245.904H52.4508L52.9668 245.382L53.1228 245.538L53.0928 245.904ZM53.2428 244.104L52.9668 244.38L51.3708 242.784L52.9668 241.182L53.4408 241.656L53.2428 244.104ZM53.5248 240.63V240.702L53.4888 240.672L53.5308 240.63H53.5248ZM53.6148 239.508L52.9668 240.15L51.3708 238.554L52.9668 236.958L53.7588 237.744L53.6148 239.508ZM53.8368 236.79L53.4828 236.436L53.8968 236.028L53.8368 236.79ZM54.2688 231.426L54.1548 232.878L53.4828 232.2L54.2688 231.414V231.426Z" fill="#00A6FB"/>
<g opacity="0.6">
<path d="M53.5288 227.904H37.9648L38.0908 229.476L38.1808 230.598L38.4208 233.52L38.5588 235.2L38.7388 237.438L38.8108 238.392V238.68L38.9008 239.808L39.0268 241.35L39.0988 242.304L39.1828 243.282L39.2728 244.404L39.3448 245.256L39.4168 246.216L39.4528 246.636H53.7688V246.216L53.8468 245.262L53.9188 244.404L54.0088 243.276L54.0868 242.304L54.1648 241.35L54.2908 239.802L54.3808 238.68V238.392L54.4528 237.438L54.6388 235.2L54.7708 233.526L55.0048 230.598L55.1008 229.476L55.2268 227.904H53.5288ZM54.4648 228.936L54.1648 228.636H54.4888L54.4648 228.936ZM54.3868 229.89L54.3568 230.268L52.9648 231.666L51.3688 230.064L52.7968 228.636H53.1328L54.3868 229.89ZM53.9848 234.87L52.9648 235.89L51.3688 234.294L52.9648 232.698L54.0688 233.802L53.9848 234.87ZM39.1768 233.802L40.2808 232.698L41.8768 234.294L40.2808 235.89L39.2608 234.87L39.1768 233.802ZM52.4488 232.2L50.8528 233.796L49.2568 232.2L50.8528 230.598L52.4488 232.2ZM49.9408 228.654H51.7408L50.8288 229.566L49.9408 228.654ZM50.3308 234.312L48.7408 235.908L47.1388 234.312L48.7408 232.716L50.3308 234.312ZM45.0268 236.4L46.6228 234.81L48.2188 236.4L46.6228 238.002L45.0268 236.4ZM46.1068 238.518L44.5048 240.114L42.9148 238.518L44.5108 236.922L46.1068 238.518ZM48.7408 236.922L50.3308 238.518L48.7408 240.114L47.1388 238.518L48.7408 236.922ZM46.6228 233.772L45.0268 232.2L46.6228 230.598L48.2188 232.2L46.6228 233.772ZM46.1068 234.288L44.5108 235.884L42.9148 234.288L44.5108 232.692L46.1068 234.288ZM42.3928 233.772L40.7968 232.2L42.3928 230.598L43.9888 232.2L42.3928 233.772ZM42.3928 234.81L43.9888 236.4L42.3928 238.002L40.7968 236.4L42.3928 234.81ZM43.9888 240.636L42.3928 242.226L40.7968 240.642L42.3928 239.04L43.9888 240.636ZM44.5048 241.146L46.1068 242.748L44.5108 244.344L42.9148 242.748L44.5048 241.146ZM45.0268 240.636L46.6228 239.034L48.2188 240.636L46.6228 242.226L45.0268 240.636ZM48.7408 241.146L50.3308 242.748L48.7408 244.344L47.1388 242.748L48.7408 241.146ZM50.8528 243.264L52.4488 244.86L51.4168 245.898H50.2888L49.2568 244.86L50.8528 243.264ZM49.2568 240.636L50.8528 239.034L52.4488 240.636L50.8528 242.226L49.2568 240.636ZM49.2568 236.4L50.8528 234.81L52.4488 236.4L50.8528 238.002L49.2568 236.4ZM50.3308 230.058L48.7408 231.66L47.1388 230.058L48.5968 228.636H48.9328L50.3308 230.058ZM46.6228 229.542L45.7108 228.63H47.5108L46.6228 229.542ZM46.1068 230.058L44.5108 231.66L42.9148 230.058L44.3428 228.63H44.6788L46.1068 230.058ZM43.3048 228.63L42.3928 229.542L41.4808 228.63H43.3048ZM40.4488 228.63L41.8768 230.058L40.2808 231.66L38.8888 230.262V229.884L40.1428 228.63H40.4488ZM39.0808 228.63L38.7808 228.924V228.63H39.0808ZM38.9788 231.39L39.7648 232.2L39.0988 232.866L38.9788 231.39ZM39.4168 236.748L39.3568 235.992L39.7648 236.4L39.4168 236.748ZM39.4948 237.708L40.2808 236.922L41.8768 238.518L40.2808 240.114L39.6328 239.472L39.4948 237.708ZM39.7288 240.666V240.6L39.7648 240.642L39.7288 240.672V240.666ZM40.0108 244.068L39.8068 241.62L40.2808 241.146L41.8768 242.748L40.2808 244.344L40.0108 244.068ZM40.1548 245.868L40.1248 245.502L40.2808 245.346L40.7968 245.868H40.1548ZM40.7968 244.866L42.3928 243.27L43.9888 244.866L42.9568 245.904H41.8288L40.7968 244.866ZM43.9888 245.904L44.5108 245.382L45.0328 245.904H43.9888ZM46.0588 245.904L45.0268 244.866L46.6228 243.27L48.2188 244.866L47.1868 245.904H46.0588ZM48.2188 245.904L48.7408 245.382L49.2568 245.904H48.2188ZM53.0908 245.904H52.4488L52.9648 245.382L53.1208 245.538L53.0908 245.904ZM53.2408 244.104L52.9648 244.38L51.3688 242.784L52.9648 241.182L53.4388 241.656L53.2408 244.104ZM53.5228 240.63V240.702L53.4868 240.672L53.5288 240.63H53.5228ZM53.6128 239.508L52.9648 240.15L51.3688 238.554L52.9648 236.958L53.7568 237.744L53.6128 239.508ZM53.8348 236.79L53.4808 236.436L53.8948 236.028L53.8348 236.79ZM54.2668 231.426L54.1528 232.878L53.4808 232.2L54.2668 231.414V231.426Z" fill="white"/>
</g>
<path d="M37.9543 229.29H55.2943C55.8378 229.29 56.2783 228.849 56.2783 228.306V228.24C56.2783 227.696 55.8378 227.256 55.2943 227.256H37.9543C37.4109 227.256 36.9703 227.696 36.9703 228.24V228.306C36.9703 228.849 37.4109 229.29 37.9543 229.29Z" fill="#00A6FB"/>
<path d="M53.9033 245.538H39.3473C38.8038 245.538 38.3633 245.978 38.3633 246.522V246.588C38.3633 247.131 38.8038 247.572 39.3473 247.572H53.9033C54.4467 247.572 54.8873 247.131 54.8873 246.588V246.522C54.8873 245.978 54.4467 245.538 53.9033 245.538Z" fill="#00A6FB"/>
<path d="M144.918 80.9085L162.619 77.8447C163.824 77.6362 164.632 76.4904 164.423 75.2855L161.359 57.5847C161.151 56.3799 160.005 55.5722 158.8 55.7808L141.099 58.8446C139.895 59.0532 139.087 60.1989 139.295 61.4038L142.359 79.1046C142.568 80.3094 143.714 81.1171 144.918 80.9085Z" fill="#00A6FB"/>
<path d="M151.11 78.084C151.11 78.084 155.148 84.198 161.988 85.146C161.988 85.146 158.046 83.7 157.128 76.746L151.11 78.084Z" fill="#00A6FB"/>
<path d="M156.953 66.6601L154.097 67.0021C154.097 67.0021 153.161 65.0941 152.567 60.6781C152.071 60.6848 151.578 60.7615 151.103 60.9061C150.641 61.1101 151.151 66.0541 151.151 66.0541C151.151 66.0541 145.979 66.4141 145.751 66.6541C145.595 66.8161 145.655 67.5781 145.751 68.1181C145.763 68.2731 145.831 68.4187 145.941 68.5286C146.051 68.6386 146.196 68.7058 146.351 68.7181H146.537L147.455 73.5781C147.485 73.7619 147.584 73.927 147.733 74.0389C147.882 74.1507 148.068 74.2006 148.253 74.1781L153.053 73.5781C153.53 73.5108 153.975 73.3017 154.331 72.9781L154.799 72.5521L157.799 72.3601L156.953 66.6601Z" fill="#00A6FB"/>
<path opacity="0.7" d="M156.953 66.6601L154.097 67.0021C154.097 67.0021 153.161 65.0941 152.567 60.6781C152.071 60.6848 151.578 60.7615 151.103 60.9061C150.641 61.1101 151.151 66.0541 151.151 66.0541C151.151 66.0541 145.979 66.4141 145.751 66.6541C145.595 66.8161 145.655 67.5781 145.751 68.1181C145.763 68.2731 145.831 68.4187 145.941 68.5286C146.051 68.6386 146.196 68.7058 146.351 68.7181H146.537L147.455 73.5781C147.485 73.7619 147.584 73.927 147.733 74.0389C147.882 74.1507 148.068 74.2006 148.253 74.1781L153.053 73.5781C153.53 73.5108 153.975 73.3017 154.331 72.9781L154.799 72.5521L157.799 72.3601L156.953 66.6601Z" fill="white"/>
<path d="M167.123 101.826C164.507 101.724 154.319 118.32 154.319 118.32L147.395 117L145.907 120.54C145.907 120.54 152.153 123.588 154.661 123.858C157.169 124.128 166.799 110.742 166.799 110.742L167.123 101.826Z" fill="#00A6FB"/>
<path opacity="0.2" d="M167.123 101.82L166.799 110.742C166.799 110.742 166.565 111.066 166.163 111.606C165.431 112.608 164.117 114.366 162.623 116.244C159.701 119.904 156.083 124.044 154.685 123.864C152.171 123.594 145.931 120.558 145.931 120.558L147.419 117.018L154.337 118.326C154.337 118.326 164.507 101.724 167.123 101.82Z" fill="white"/>
<path opacity="0.2" d="M166.14 111.6C165.408 112.602 164.094 114.36 162.6 116.238C162.654 112.698 165.75 108.294 165.75 108.294C165.75 108.294 165.972 109.74 166.14 111.6Z" fill="black"/>
<path d="M186.995 247.068H192.845C192.941 247.068 193.034 247.101 193.109 247.161C193.184 247.22 193.237 247.304 193.259 247.398L194.207 251.688C194.246 251.872 194.21 252.065 194.108 252.223C194.006 252.382 193.845 252.493 193.661 252.534H193.505C191.609 252.504 190.229 252.39 187.853 252.39C186.389 252.39 181.967 252.54 179.945 252.54C177.923 252.54 177.659 250.542 178.487 250.356C182.201 249.552 184.997 248.43 186.185 247.356C186.408 247.159 186.698 247.056 186.995 247.068Z" fill="#263238"/>
<path d="M162.167 246.912H167.999C168.094 246.912 168.187 246.945 168.261 247.005C168.335 247.065 168.386 247.149 168.407 247.242L169.361 251.538C169.398 251.722 169.361 251.914 169.258 252.071C169.154 252.229 168.993 252.339 168.809 252.378C168.757 252.384 168.705 252.384 168.653 252.378C166.763 252.342 165.383 252.228 163.001 252.228C161.537 252.228 157.121 252.384 155.099 252.384C153.077 252.384 152.813 250.386 153.641 250.2C157.355 249.39 160.145 248.268 161.339 247.2C161.569 247.003 161.864 246.9 162.167 246.912Z" fill="#263238"/>
<path d="M190.099 138.564H164.527C162.091 151.842 154.483 205.764 159.943 247.626H168.601C168.601 247.626 167.797 184.026 175.441 163.494C176.323 174.492 185.263 247.578 185.263 247.578H194.077C194.077 247.578 192.757 220.086 191.437 194.112C190.609 177.762 190.135 141.918 190.099 138.564Z" fill="#263238"/>
<path opacity="0.2" d="M175.439 163.494C174.182 167.096 173.226 170.797 172.583 174.558C171.869 164.772 174.731 154.398 174.731 154.398L175.439 163.494Z" fill="black"/>
<path d="M164.309 138.87H190.049V141.936L163.979 141.618L164.309 138.87Z" fill="black"/>
<path d="M181.774 137.49H180.856V142.932H181.774V137.49Z" fill="#263238"/>
<path d="M168.748 137.49H167.83V142.932H168.748V137.49Z" fill="#263238"/>
<path d="M176.044 138.33H171.28V141.762H176.044V138.33Z" fill="white"/>
<path d="M190.133 139.362C190.811 124.716 195.119 103.962 195.119 103.962C183.167 101.082 167.123 101.802 167.123 101.802C163.997 112.986 164.051 131.034 164.321 139.338L190.133 139.362Z" fill="#00A6FB"/>
<path opacity="0.2" d="M195.118 103.98C195.118 103.98 194.638 106.302 193.972 109.932C193.654 111.666 193.288 113.7 192.922 115.932C192.706 117.234 192.484 118.596 192.274 120C192.064 121.404 191.848 122.778 191.674 124.2C190.966 129.288 190.372 134.646 190.15 139.368H164.35C164.08 131.064 164.026 113.016 167.152 101.826C167.122 101.82 183.172 101.1 195.118 103.98Z" fill="white"/>
<path opacity="0.2" d="M193.973 109.932C193.655 111.666 193.289 113.7 192.923 115.932C192.707 117.234 192.485 118.596 192.275 120C190.379 115.026 193.607 108.306 193.607 108.306L193.973 109.932Z" fill="black"/>
<path d="M175.619 103.8L176.261 106.968C176.261 106.968 172.571 122.37 171.779 130.368L173.123 131.712L175.241 130.368C175.241 130.368 175.427 114.102 177.299 107.268L180.647 104.526L178.007 103.668L175.619 103.8Z" fill="#263238"/>
<path d="M185.638 102.366C183.43 104.376 178.006 103.632 178.006 103.632C178.006 103.632 174.628 102.708 175.336 101.652C177.328 101.322 178.294 100.392 178.69 99.2036C178.91 98.4671 178.98 97.6936 178.894 96.9296C178.862 96.5028 178.806 96.0781 178.726 95.6576L185.428 90.6956C184.546 93.9716 183.472 99.9956 185.638 102.366Z" fill="#EEC1BB"/>
<path opacity="0.2" d="M183.88 93.8516C183.61 97.8716 180.28 98.9756 178.69 99.2036C178.911 98.4671 178.98 97.6936 178.894 96.9296L183.88 93.8516Z" fill="black"/>
<path d="M184.655 99.8157L178.247 102.708L177.875 100.392L175.517 101.22C175.108 101.363 174.758 101.641 174.526 102.008C174.294 102.375 174.193 102.81 174.239 103.242L174.503 105.786L177.749 103.986L179.369 106.272L187.061 102.6L184.655 99.8157Z" fill="#00A6FB"/>
<path opacity="0.3" d="M184.655 99.8157L178.247 102.708L177.875 100.392L175.517 101.22C175.108 101.363 174.758 101.641 174.526 102.008C174.294 102.375 174.193 102.81 174.239 103.242L174.503 105.786L177.749 103.986L179.369 106.272L187.061 102.6L184.655 99.8157Z" fill="white"/>
<path d="M171.695 81.3896C171.695 81.3896 170.693 87.8396 174.095 90.3356C177.497 92.8316 177.551 80.8136 177.551 80.8136L171.695 81.3896Z" fill="#263238"/>
<path d="M184.038 95.4897C183.318 96.5515 182.269 97.3472 181.053 97.7538C179.836 98.1604 178.52 98.1554 177.306 97.7397C175.725 97.2364 174.397 96.1482 173.592 94.6977C173.48 94.503 173.378 94.3027 173.286 94.0977C171.612 90.1497 171.096 83.2497 175.272 80.6757C176.699 79.7849 178.421 79.4968 180.06 79.8748C181.699 80.2528 183.121 81.266 184.014 82.6917C184.547 83.5352 184.87 84.4939 184.956 85.4877C185.454 90.0837 185.964 92.7717 184.038 95.4897Z" fill="#EEC1BB"/>
<path d="M178.229 87.9117C178.313 88.2777 178.145 88.6197 177.899 88.6617C177.653 88.7037 177.407 88.4277 177.341 88.0617C177.275 87.6957 177.431 87.3597 177.671 87.3177C177.911 87.2757 178.163 87.5397 178.229 87.9117Z" fill="#263238"/>
<path d="M173.999 88.6198C174.083 88.9858 173.909 89.3278 173.669 89.3638C173.429 89.3998 173.177 89.1358 173.117 88.7638C173.057 88.3918 173.201 88.0558 173.441 88.0198C173.681 87.9838 173.957 88.2658 173.999 88.6198Z" fill="#263238"/>
<path d="M175.386 88.5777C175.133 89.792 174.713 90.9652 174.138 92.0637C174.425 92.2029 174.739 92.2782 175.058 92.2844C175.377 92.2906 175.693 92.2276 175.986 92.0997L175.386 88.5777Z" fill="#D4827D"/>
<path d="M172.152 87.0839C172.191 87.0967 172.232 87.0996 172.272 87.0922C172.311 87.0849 172.349 87.0675 172.38 87.0419C172.585 86.8526 172.831 86.7134 173.098 86.6353C173.366 86.5572 173.648 86.5423 173.922 86.5919C173.95 86.6001 173.979 86.6027 174.007 86.5996C174.036 86.5964 174.064 86.5876 174.089 86.5737C174.114 86.5597 174.136 86.5408 174.154 86.5182C174.172 86.4956 174.185 86.4696 174.192 86.4419C174.207 86.3846 174.199 86.3238 174.17 86.2723C174.141 86.2208 174.093 86.1826 174.036 86.1659C173.693 86.0939 173.337 86.1054 172.999 86.1994C172.66 86.2933 172.349 86.467 172.092 86.7058C172.047 86.7433 172.018 86.7972 172.013 86.8557C172.007 86.9141 172.025 86.9725 172.062 87.0179C172.088 87.0454 172.118 87.0678 172.152 87.0839Z" fill="#263238"/>
<path d="M178.8 86.0877C178.841 86.0816 178.879 86.0621 178.908 86.0324C178.937 86.0026 178.956 85.9642 178.961 85.9228C178.967 85.8815 178.959 85.8395 178.938 85.8032C178.918 85.767 178.886 85.7383 178.847 85.7217C178.55 85.5323 178.212 85.4175 177.861 85.3872C177.51 85.3569 177.157 85.412 176.832 85.5477C176.805 85.5599 176.781 85.5773 176.762 85.5988C176.742 85.6204 176.728 85.6456 176.718 85.6731C176.708 85.7005 176.705 85.7296 176.707 85.7586C176.709 85.7876 176.716 85.8158 176.73 85.8417C176.755 85.8939 176.801 85.9338 176.856 85.9529C176.911 85.972 176.971 85.9687 177.024 85.9437C177.284 85.8455 177.564 85.809 177.841 85.8371C178.117 85.8652 178.384 85.9572 178.62 86.1057C178.649 86.1168 178.68 86.1209 178.712 86.1178C178.743 86.1147 178.773 86.1044 178.8 86.0877Z" fill="#263238"/>
<path d="M180.641 80.3278V82.3858C181 82.5095 181.3 82.7623 181.483 83.0949C181.666 83.4276 181.718 83.8164 181.631 84.1858C181.175 85.9858 182.459 88.4998 183.899 89.3998C183.899 89.3998 183.851 88.6558 184.499 88.7578C185.147 88.8598 185.435 92.7298 184.433 94.7158C184.433 94.7158 186.077 92.8318 186.635 88.6678C187.151 84.8098 186.899 81.6778 185.963 80.3218L180.641 80.3278Z" fill="#263238"/>
<path d="M187.583 88.8838C187.248 90.0039 186.485 90.9464 185.459 91.5058C184.091 92.2318 183.059 91.0918 183.173 89.6278C183.269 88.3258 184.085 86.3398 185.573 86.2318C187.061 86.1238 187.973 87.5038 187.583 88.8838Z" fill="#EEC1BB"/>
<path d="M176.471 93.2277C176.792 93.721 177.079 94.2362 177.329 94.7697L177.629 94.6797C178.979 94.2837 179.471 93.6537 179.615 93.0777C179.682 92.7956 179.682 92.5017 179.615 92.2197C179.578 92.0605 179.519 91.9071 179.441 91.7637C178.715 92.3778 177.866 92.8281 176.951 93.0837C176.651 93.1797 176.471 93.2277 176.471 93.2277Z" fill="#263238"/>
<path d="M176.928 93.0837L177.192 93.5337C178.464 93.1557 179.31 92.7237 179.592 92.2197C179.555 92.0605 179.496 91.9071 179.418 91.7637C178.692 92.3778 177.843 92.8281 176.928 93.0837Z" fill="white"/>
<path d="M177.63 94.6797C178.98 94.2837 179.472 93.6537 179.616 93.0777C179.105 93.2401 178.626 93.4898 178.2 93.8157C177.925 94.0376 177.726 94.3396 177.63 94.6797Z" fill="#DE5753"/>
<path d="M185.639 81.2997C185.639 81.2997 187.853 78.5997 182.543 76.9437C177.233 75.2877 169.464 80.2197 171.042 82.1697C172.62 84.1197 178.061 83.3037 178.061 83.3037C177.301 83.2121 176.582 82.9085 175.985 82.4277C175.985 82.4277 183.857 82.9557 185.639 81.2997Z" fill="#263238"/>
<path d="M195.119 103.986C198.485 105.126 200.789 126.054 200.747 127.872C200.705 129.69 195.551 130.476 195.119 126.672C194.687 122.868 192.923 114.78 192.923 114.78C192.923 114.78 192.455 111.12 192.923 108.9C193.391 106.68 195.119 103.986 195.119 103.986Z" fill="#00A6FB"/>
<path opacity="0.2" d="M195.119 103.986C198.485 105.126 200.789 126.054 200.747 127.872C200.705 129.69 195.551 130.476 195.119 126.672C194.687 122.868 192.923 114.78 192.923 114.78C192.923 114.78 192.455 111.12 192.923 108.9C193.391 106.68 195.119 103.986 195.119 103.986Z" fill="white"/>
<path d="M221.581 127.343L104.128 114.625L95.2808 196.329L212.734 209.047L221.581 127.343Z" fill="#00A6FB"/>
<path opacity="0.6" d="M221.581 127.343L104.128 114.625L95.2808 196.329L212.734 209.047L221.581 127.343Z" fill="white"/>
<path d="M210.33 206.262L98.2559 194.136L106.56 117.378L218.634 129.504L210.33 206.262ZM98.9219 193.602L209.796 205.602L217.974 130.038L107.094 118.038L98.9219 193.602Z" fill="#00A6FB"/>
<path d="M211.584 207.75L205.05 207.042L205.302 204.732L103.5 193.716L103.248 196.026L96.7139 195.324L97.4219 188.79L99.7919 189.048L106.992 122.682L104.592 122.424L105.3 115.89L111.834 116.598L111.588 118.908L213.39 129.924L213.636 127.614L220.2 128.316L219.492 134.85L217.122 134.598L209.922 200.958L212.322 201.216L211.584 207.75ZM205.71 206.514L211.05 207.114L211.65 201.774L209.25 201.516L216.558 133.956L218.958 134.214L219.558 128.874L214.218 128.274L213.966 130.584L110.928 119.442L111.18 117.126L105.84 116.526L105.24 121.866L107.61 122.124L100.302 189.684L97.9019 189.426L97.3019 194.766L102.642 195.366L102.894 193.056L205.89 204.198L205.71 206.514Z" fill="#00A6FB"/>
<path d="M108.187 119.478L109.549 119.628L109.399 120.99L108.037 120.846L108.187 119.478ZM107.653 118.818L107.587 119.418L107.443 120.786L107.377 121.386L107.977 121.452L109.345 121.602L109.945 121.662L110.011 121.062L110.155 119.7L110.221 119.1L109.621 119.034L108.253 118.89L107.653 118.824V118.818Z" fill="#00A6FB"/>
<path d="M100.441 191.07L101.803 191.214L101.653 192.576L100.291 192.432L100.441 191.07ZM99.9069 190.404L99.8409 191.004L99.6969 192.366L99.6309 192.966L100.231 193.026L101.599 193.176L102.199 193.242L102.265 192.642L102.409 191.28L102.475 190.68L101.875 190.62L100.507 190.47L99.9069 190.404Z" fill="#00A6FB"/>
<path d="M215.238 131.064L216.6 131.208L216.456 132.576L215.088 132.426L215.238 131.064ZM214.704 130.398L214.638 130.998L214.494 132.36L214.428 132.96L215.028 133.02L216.396 133.17L216.996 133.236L217.062 132.636L217.212 131.274L217.272 130.674L216.672 130.608L215.31 130.458L214.71 130.392L214.704 130.398Z" fill="#00A6FB"/>
<path d="M207.492 202.65L208.854 202.8L208.71 204.162L207.342 204.012L207.492 202.65ZM206.958 201.99L206.892 202.59L206.748 203.958L206.682 204.558L207.282 204.624L208.644 204.768L209.244 204.834L209.31 204.234L209.46 202.866L209.52 202.266L208.92 202.2L207.558 202.056L206.958 201.99Z" fill="#00A6FB"/>
<path d="M130.14 132.138C130.23 131.557 130.489 131.016 130.884 130.581C131.28 130.147 131.794 129.838 132.363 129.693C132.933 129.548 133.532 129.573 134.087 129.765C134.642 129.958 135.128 130.309 135.486 130.776L134.754 131.328C134.591 131.101 134.382 130.912 134.139 130.773C133.897 130.634 133.628 130.549 133.35 130.524C133.092 130.489 132.829 130.506 132.578 130.575C132.327 130.643 132.092 130.761 131.887 130.921C131.682 131.082 131.511 131.282 131.385 131.509C131.258 131.737 131.179 131.987 131.151 132.246C131.123 132.505 131.147 132.767 131.222 133.016C131.296 133.266 131.42 133.497 131.586 133.698C131.752 133.899 131.956 134.064 132.187 134.185C132.418 134.305 132.67 134.378 132.93 134.4C133.208 134.434 133.49 134.408 133.757 134.323C134.024 134.238 134.27 134.096 134.478 133.908L135.078 134.61C134.629 134.989 134.079 135.229 133.496 135.298C132.912 135.368 132.321 135.265 131.796 135.001C131.271 134.738 130.834 134.326 130.541 133.817C130.248 133.308 130.11 132.724 130.146 132.138H130.14Z" fill="#00A6FB"/>
<path d="M140.197 135.144L140.101 136.008L135.967 135.558L136.567 130.038L140.593 130.476L140.503 131.334L137.503 131.01L137.347 132.444L140.017 132.732L139.921 133.578L137.257 133.29L137.095 134.808L140.197 135.144Z" fill="#00A6FB"/>
<path d="M144.851 136.518L143.903 134.784H143.687L142.439 134.652L142.265 136.26L141.245 136.146L141.845 130.632L144.113 130.878C145.565 131.034 146.387 131.868 146.255 133.092C146.227 133.471 146.079 133.831 145.833 134.121C145.588 134.411 145.256 134.616 144.887 134.706L145.961 136.656L144.851 136.518ZM143.969 131.718L142.769 131.592L142.535 133.788L143.735 133.92C144.635 134.016 145.145 133.656 145.217 132.96C145.289 132.264 144.869 131.814 143.999 131.718H143.969Z" fill="#00A6FB"/>
<path d="M148.549 132.216L146.719 132.018L146.815 131.148L151.495 131.658L151.405 132.522L149.575 132.324L149.071 136.974L148.045 136.866L148.549 132.216Z" fill="#00A6FB"/>
<path d="M152.267 131.742L153.293 131.85L152.693 137.37L151.667 137.256L152.267 131.742Z" fill="#00A6FB"/>
<path d="M155.714 132.984L155.534 134.658L158.198 134.946L158.102 135.816L155.438 135.528L155.21 137.64L154.184 137.532L154.784 132.012L158.81 132.45L158.72 133.308L155.714 132.984Z" fill="#00A6FB"/>
<path d="M159.803 132.552L160.823 132.666L160.223 138.186L159.197 138.072L159.803 132.552Z" fill="#00A6FB"/>
<path d="M161.623 135.546C161.661 135.161 161.777 134.789 161.964 134.451C162.151 134.113 162.405 133.817 162.711 133.581C163.017 133.345 163.367 133.174 163.742 133.078C164.116 132.983 164.506 132.965 164.887 133.026C165.298 133.054 165.698 133.172 166.058 133.372C166.417 133.572 166.729 133.849 166.969 134.184L166.243 134.736C166.081 134.508 165.871 134.318 165.629 134.178C165.387 134.039 165.117 133.953 164.839 133.926C164.516 133.894 164.19 133.944 163.891 134.07C163.592 134.197 163.329 134.396 163.126 134.65C162.923 134.903 162.787 135.204 162.73 135.523C162.673 135.843 162.697 136.172 162.799 136.48C162.901 136.788 163.079 137.066 163.315 137.289C163.552 137.511 163.841 137.67 164.155 137.753C164.469 137.835 164.799 137.838 165.114 137.76C165.43 137.683 165.721 137.528 165.961 137.31L166.561 138.012C166.113 138.391 165.563 138.63 164.981 138.7C164.398 138.769 163.807 138.667 163.282 138.404C162.757 138.142 162.321 137.731 162.027 137.223C161.733 136.715 161.595 136.132 161.629 135.546H161.623Z" fill="#00A6FB"/>
<path d="M171.048 138.06L168.288 137.766L167.604 138.966L166.548 138.852L169.632 133.602L170.64 133.71L172.53 139.494L171.462 139.38L171.048 138.06ZM170.796 137.22L170.016 134.694L168.72 136.998L170.796 137.22Z" fill="#00A6FB"/>
<path d="M174.6 135.03L172.77 134.832L172.86 133.968L177.546 134.472L177.45 135.342L175.62 135.144L175.122 139.794L174.096 139.68L174.6 135.03Z" fill="#00A6FB"/>
<path d="M178.297 134.556L179.323 134.67L178.723 140.184L177.697 140.076L178.297 134.556Z" fill="#00A6FB"/>
<path d="M180.12 137.544C180.156 136.945 180.37 136.371 180.736 135.896C181.101 135.42 181.601 135.065 182.171 134.877C182.74 134.688 183.353 134.674 183.93 134.837C184.507 135 185.022 135.333 185.408 135.791C185.795 136.25 186.035 136.814 186.098 137.41C186.16 138.007 186.043 138.609 185.76 139.138C185.478 139.667 185.043 140.099 184.513 140.378C183.982 140.658 183.38 140.772 182.784 140.706C182.397 140.685 182.019 140.585 181.672 140.412C181.325 140.239 181.018 139.997 180.768 139.701C180.519 139.405 180.332 139.06 180.221 138.689C180.109 138.319 180.075 137.929 180.12 137.544ZM185.028 138.078C185.071 137.694 184.999 137.307 184.821 136.964C184.643 136.621 184.368 136.339 184.03 136.153C183.692 135.967 183.306 135.885 182.922 135.919C182.537 135.952 182.171 136.098 181.87 136.34C181.569 136.581 181.346 136.907 181.23 137.275C181.114 137.643 181.11 138.037 181.218 138.408C181.326 138.778 181.542 139.108 181.837 139.356C182.133 139.604 182.496 139.758 182.88 139.8C183.135 139.835 183.395 139.818 183.643 139.749C183.891 139.681 184.123 139.562 184.324 139.401C184.525 139.24 184.691 139.039 184.812 138.812C184.933 138.584 185.006 138.335 185.028 138.078Z" fill="#00A6FB"/>
<path d="M192.355 136.074L191.755 141.594L190.915 141.504L188.275 137.436L187.867 141.174L186.853 141.066L187.453 135.546L188.299 135.636L190.939 139.704L191.341 135.966L192.355 136.074Z" fill="#00A6FB"/>
<path opacity="0.6" d="M186.703 157.368L131.797 151.428C131.181 151.361 130.564 151.542 130.081 151.93C129.598 152.318 129.289 152.882 129.223 153.498C129.156 154.114 129.336 154.731 129.725 155.214C130.113 155.696 130.677 156.005 131.293 156.072L186.199 162.012C186.504 162.045 186.812 162.018 187.106 161.932C187.401 161.845 187.675 161.702 187.914 161.51C188.153 161.318 188.352 161.08 188.499 160.811C188.647 160.542 188.74 160.247 188.773 159.942C188.806 159.637 188.778 159.328 188.692 159.034C188.606 158.74 188.463 158.465 188.271 158.226C188.078 157.987 187.841 157.788 187.572 157.641C187.303 157.494 187.008 157.401 186.703 157.368Z" fill="white"/>
<path d="M200.052 169.422H200.016L116.208 160.356C116.129 160.347 116.056 160.307 116.006 160.245C115.956 160.182 115.933 160.102 115.941 160.023C115.95 159.943 115.99 159.87 116.052 159.82C116.115 159.77 116.195 159.747 116.274 159.756L200.082 168.828C200.122 168.832 200.16 168.843 200.194 168.862C200.229 168.881 200.26 168.906 200.284 168.937C200.309 168.968 200.327 169.003 200.338 169.041C200.348 169.079 200.351 169.119 200.346 169.158C200.338 169.23 200.303 169.297 200.249 169.345C200.195 169.394 200.125 169.421 200.052 169.422Z" fill="#00A6FB"/>
<path d="M200.322 166.908H200.286L123.048 158.55C122.969 158.541 122.897 158.501 122.848 158.439C122.799 158.377 122.776 158.299 122.784 158.22C122.788 158.181 122.799 158.143 122.818 158.108C122.837 158.073 122.862 158.043 122.893 158.018C122.924 157.993 122.959 157.975 122.997 157.964C123.035 157.954 123.075 157.951 123.114 157.956L200.352 166.308C200.432 166.312 200.506 166.347 200.56 166.406C200.613 166.465 200.641 166.543 200.637 166.623C200.633 166.702 200.598 166.777 200.538 166.831C200.479 166.884 200.401 166.912 200.322 166.908Z" fill="#00A6FB"/>
<path d="M166.925 168.498L115.925 162.984C115.845 162.975 115.773 162.935 115.723 162.873C115.673 162.81 115.649 162.731 115.658 162.651C115.667 162.571 115.707 162.499 115.769 162.448C115.832 162.398 115.912 162.375 115.991 162.384L166.955 167.898C166.994 167.9 167.033 167.91 167.069 167.927C167.104 167.943 167.136 167.967 167.163 167.996C167.189 168.026 167.21 168.06 167.223 168.097C167.236 168.134 167.242 168.174 167.24 168.213C167.238 168.252 167.228 168.291 167.211 168.327C167.195 168.362 167.171 168.394 167.142 168.421C167.112 168.447 167.078 168.468 167.041 168.481C167.004 168.494 166.964 168.5 166.925 168.498Z" fill="#00A6FB"/>
<path d="M202.242 149.178H202.2L124.968 140.82C124.888 140.811 124.816 140.771 124.766 140.709C124.715 140.646 124.692 140.566 124.701 140.487C124.71 140.407 124.75 140.334 124.812 140.284C124.875 140.234 124.954 140.211 125.034 140.22L202.272 148.578C202.351 148.587 202.423 148.627 202.472 148.689C202.521 148.75 202.544 148.829 202.536 148.908C202.53 148.982 202.496 149.05 202.442 149.1C202.387 149.15 202.316 149.178 202.242 149.178Z" fill="#00A6FB"/>
<path d="M201.965 151.692H201.935L118.127 142.62C118.048 142.611 117.975 142.571 117.925 142.509C117.875 142.446 117.851 142.366 117.86 142.287C117.869 142.207 117.909 142.134 117.971 142.084C118.034 142.034 118.114 142.011 118.193 142.02L202.001 151.086C202.041 151.088 202.079 151.098 202.115 151.116C202.15 151.133 202.182 151.157 202.208 151.186C202.234 151.216 202.254 151.25 202.267 151.288C202.28 151.325 202.286 151.364 202.283 151.404C202.281 151.443 202.271 151.482 202.253 151.517C202.236 151.553 202.212 151.585 202.183 151.611C202.153 151.637 202.119 151.657 202.081 151.67C202.044 151.683 202.005 151.688 201.965 151.686V151.692Z" fill="#00A6FB"/>
<path d="M155.4 151.968L117.564 147.876C117.484 147.867 117.411 147.827 117.361 147.765C117.311 147.702 117.288 147.622 117.297 147.543C117.305 147.463 117.345 147.39 117.408 147.34C117.47 147.29 117.55 147.267 117.63 147.276L155.466 151.374C155.544 151.383 155.616 151.423 155.666 151.484C155.715 151.546 155.738 151.625 155.73 151.704C155.719 151.782 155.679 151.853 155.618 151.902C155.556 151.951 155.478 151.975 155.4 151.968Z" fill="#00A6FB"/>
<path d="M201.684 154.32H201.654L117.846 145.248C117.807 145.243 117.768 145.231 117.734 145.212C117.699 145.193 117.668 145.167 117.643 145.137C117.619 145.106 117.6 145.07 117.589 145.032C117.578 144.994 117.575 144.954 117.579 144.915C117.583 144.875 117.595 144.837 117.614 144.802C117.634 144.768 117.659 144.737 117.69 144.712C117.721 144.687 117.757 144.669 117.795 144.658C117.833 144.647 117.873 144.643 117.912 144.648L201.714 153.72C201.794 153.724 201.868 153.759 201.922 153.818C201.975 153.877 202.003 153.955 201.999 154.035C201.995 154.114 201.96 154.189 201.9 154.242C201.841 154.296 201.764 154.324 201.684 154.32Z" fill="#00A6FB"/>
<path d="M191.106 197.172L187.644 194.802L183.756 196.374L185.1 183.93L192.456 184.728L191.106 197.172Z" fill="#00A6FB"/>
<path opacity="0.2" d="M191.106 197.172L187.644 194.802L183.756 196.374L185.1 183.93L192.456 184.728L191.106 197.172Z" fill="black"/>
<path d="M189.81 174.792L191.022 174.09L191.79 175.266L193.146 174.888L193.596 176.214L195 176.184L195.108 177.588L196.476 177.9L196.23 179.286L197.478 179.934L196.896 181.212L197.94 182.154L197.058 183.246L197.838 184.416L196.716 185.256L197.178 186.582L195.876 187.116L196.002 188.514L194.61 188.712L194.376 190.098L192.978 189.936L192.408 191.22L191.1 190.722L190.23 191.826L189.078 191.016L187.962 191.868L187.05 190.794L185.76 191.34L185.142 190.08L183.756 190.284L183.474 188.91L182.076 188.766L182.148 187.362L180.828 186.876L181.242 185.532L180.09 184.734L180.828 183.534L179.904 182.478L180.918 181.5L180.288 180.24L181.512 179.55L181.218 178.176L182.574 177.81L182.628 176.406L184.038 176.388L184.44 175.044L185.808 175.374L186.528 174.168L187.77 174.834L188.772 173.844L189.81 174.792Z" fill="#00A6FB"/>
<path opacity="0.2" d="M189.631 176.43L190.603 175.866L191.215 176.808L192.295 176.502L192.655 177.564L193.777 177.54L193.861 178.662L194.959 178.914L194.761 180.018L195.757 180.534L195.289 181.56L196.129 182.304L195.421 183.18L196.045 184.116L195.145 184.788L195.517 185.844L194.479 186.27L194.575 187.386L193.465 187.542L193.279 188.652L192.163 188.52L191.707 189.552L190.663 189.15L189.967 190.032L189.049 189.384L188.161 190.062L187.429 189.21L186.397 189.642L185.911 188.634L184.801 188.802L184.573 187.704L183.457 187.584L183.517 186.468L182.461 186.078L182.797 185.004L181.873 184.368L182.461 183.414L181.723 182.562L182.533 181.788L182.035 180.78L183.007 180.228L182.773 179.13L183.859 178.836L183.901 177.72L185.023 177.702L185.347 176.628L186.439 176.892L187.015 175.932L188.005 176.46L188.803 175.674L189.631 176.43Z" fill="white"/>
<path d="M188.934 183.456L189.774 183.552L189.714 184.11L188.808 184.014L188.562 185.052L187.998 184.992L188.244 183.954L187.2 183.84L186.96 184.878L186.396 184.818L186.642 183.78L185.802 183.69L185.862 183.126L186.768 183.222L187.032 182.136L186.192 182.046L186.252 181.482L187.158 181.578L187.404 180.54L187.968 180.6L187.722 181.644L188.76 181.752L189.006 180.714L189.57 180.774L189.324 181.812L190.158 181.902L190.104 182.466L189.198 182.37L188.934 183.456ZM188.37 183.396L188.628 182.31L187.59 182.196L187.326 183.282L188.37 183.396Z" fill="#00A6FB"/>
<path d="M192.18 181.062L191.712 185.394L190.908 185.31L191.304 181.644L190.386 181.548L190.458 180.876L192.18 181.062Z" fill="#00A6FB"/>
<path d="M122.489 170.514C122.631 170.43 122.799 170.405 122.959 170.443C123.119 170.481 123.258 170.58 123.347 170.718C123.423 170.832 123.533 170.92 123.661 170.967C123.789 171.015 123.93 171.02 124.061 170.982C124.22 170.938 124.389 170.957 124.534 171.034C124.679 171.111 124.789 171.24 124.841 171.396C124.885 171.521 124.965 171.63 125.073 171.707C125.18 171.784 125.309 171.827 125.441 171.828C125.606 171.826 125.766 171.887 125.887 171.998C126.009 172.11 126.083 172.263 126.095 172.428C126.099 172.568 126.149 172.704 126.238 172.813C126.327 172.921 126.45 172.997 126.587 173.028C126.747 173.065 126.887 173.163 126.977 173.3C127.068 173.437 127.102 173.604 127.073 173.766C127.048 173.9 127.068 174.039 127.128 174.161C127.189 174.283 127.287 174.383 127.409 174.444C127.554 174.521 127.664 174.65 127.717 174.804C127.771 174.959 127.764 175.128 127.697 175.278C127.64 175.402 127.624 175.542 127.652 175.676C127.68 175.81 127.751 175.931 127.853 176.022C127.975 176.132 128.05 176.285 128.063 176.449C128.077 176.612 128.027 176.775 127.925 176.904C127.838 177.009 127.788 177.14 127.781 177.276C127.775 177.412 127.813 177.547 127.889 177.66C127.979 177.797 128.013 177.963 127.985 178.124C127.958 178.286 127.87 178.431 127.739 178.53C127.628 178.61 127.547 178.725 127.507 178.856C127.467 178.987 127.47 179.127 127.517 179.256C127.573 179.41 127.566 179.58 127.499 179.73C127.432 179.88 127.309 179.998 127.157 180.06C127.031 180.112 126.924 180.203 126.853 180.319C126.782 180.436 126.75 180.572 126.761 180.708C126.775 180.872 126.726 181.035 126.623 181.163C126.52 181.291 126.372 181.375 126.209 181.398C126.074 181.416 125.949 181.477 125.851 181.572C125.754 181.667 125.69 181.791 125.669 181.926C125.641 182.088 125.552 182.234 125.421 182.333C125.289 182.432 125.125 182.478 124.961 182.46C124.826 182.445 124.689 182.474 124.57 182.542C124.451 182.61 124.357 182.713 124.301 182.838C124.236 182.988 124.116 183.107 123.964 183.17C123.813 183.233 123.644 183.234 123.491 183.174C123.363 183.126 123.224 183.119 123.092 183.156C122.96 183.193 122.844 183.27 122.759 183.378C122.657 183.507 122.51 183.593 122.346 183.616C122.183 183.639 122.018 183.599 121.883 183.504C121.774 183.424 121.641 183.381 121.505 183.381C121.369 183.381 121.237 183.424 121.127 183.504C120.996 183.605 120.831 183.651 120.667 183.633C120.503 183.615 120.352 183.534 120.245 183.408C120.156 183.305 120.037 183.233 119.904 183.202C119.772 183.17 119.633 183.182 119.507 183.234C119.357 183.298 119.188 183.302 119.035 183.245C118.882 183.188 118.757 183.075 118.685 182.928C118.626 182.805 118.528 182.705 118.407 182.641C118.286 182.577 118.148 182.554 118.013 182.574C117.85 182.597 117.684 182.557 117.549 182.463C117.414 182.368 117.321 182.225 117.287 182.064C117.26 181.931 117.192 181.81 117.091 181.718C116.991 181.626 116.864 181.569 116.729 181.554C116.562 181.545 116.404 181.469 116.292 181.345C116.18 181.22 116.121 181.056 116.129 180.888C116.136 180.751 116.099 180.615 116.024 180.501C115.948 180.386 115.838 180.299 115.709 180.252C115.555 180.195 115.429 180.081 115.357 179.934C115.284 179.786 115.271 179.617 115.319 179.46C115.36 179.33 115.358 179.191 115.314 179.062C115.269 178.934 115.185 178.823 115.073 178.746C114.939 178.652 114.845 178.51 114.811 178.35C114.778 178.189 114.807 178.022 114.893 177.882C114.964 177.766 114.996 177.63 114.985 177.494C114.975 177.359 114.921 177.23 114.833 177.126C114.724 177.003 114.667 176.842 114.673 176.678C114.68 176.513 114.75 176.358 114.869 176.244C114.968 176.149 115.035 176.026 115.059 175.891C115.082 175.756 115.062 175.617 115.001 175.494C114.926 175.347 114.911 175.177 114.959 175.019C115.007 174.861 115.115 174.728 115.259 174.648C115.377 174.581 115.471 174.477 115.526 174.353C115.581 174.229 115.595 174.091 115.565 173.958C115.53 173.797 115.559 173.628 115.645 173.487C115.731 173.347 115.868 173.244 116.027 173.202C116.16 173.166 116.278 173.088 116.363 172.98C116.449 172.872 116.497 172.74 116.501 172.602C116.512 172.441 116.582 172.29 116.699 172.179C116.816 172.068 116.97 172.005 117.131 172.002C117.267 172 117.398 171.954 117.506 171.872C117.614 171.79 117.693 171.676 117.731 171.546C117.778 171.388 117.883 171.253 118.027 171.172C118.17 171.09 118.339 171.067 118.499 171.108C118.632 171.139 118.772 171.128 118.898 171.075C119.024 171.022 119.13 170.931 119.201 170.814C119.284 170.673 119.419 170.569 119.577 170.525C119.735 170.482 119.904 170.501 120.047 170.58C120.167 170.645 120.305 170.669 120.44 170.65C120.575 170.63 120.7 170.568 120.797 170.472C120.918 170.359 121.076 170.296 121.241 170.296C121.406 170.296 121.565 170.359 121.685 170.472C121.794 170.571 121.933 170.629 122.08 170.636C122.226 170.644 122.371 170.601 122.489 170.514Z" fill="#00A6FB"/>
<path opacity="0.2" d="M121.41 182.514C124.465 182.514 126.942 180.037 126.942 176.982C126.942 173.927 124.465 171.45 121.41 171.45C118.355 171.45 115.878 173.927 115.878 176.982C115.878 180.037 118.355 182.514 121.41 182.514Z" fill="white"/>
<path d="M121.704 174.234L122.406 176.142L124.368 176.646L122.772 177.9L122.898 179.922L121.212 178.788L119.328 179.538L119.886 177.582L118.59 176.022L120.618 175.95L121.704 174.234Z" fill="#00A6FB"/>
<path d="M145.919 184.387C148.808 182.062 149.265 177.835 146.94 174.947C144.615 172.058 140.388 171.601 137.5 173.926C134.611 176.251 134.154 180.478 136.479 183.366C138.804 186.255 143.031 186.712 145.919 184.387Z" fill="#00A6FB"/>
<path opacity="0.2" d="M146.736 179.724C146.628 180.72 146.228 181.661 145.585 182.429C144.942 183.197 144.085 183.757 143.124 184.038C142.163 184.32 141.14 184.31 140.184 184.01C139.229 183.709 138.383 183.133 137.756 182.352C137.128 181.572 136.746 180.622 136.657 179.625C136.569 178.627 136.779 177.626 137.26 176.747C137.74 175.868 138.471 175.152 139.359 174.689C140.247 174.225 141.252 174.036 142.248 174.144C143.583 174.289 144.806 174.958 145.648 176.004C146.489 177.051 146.881 178.389 146.736 179.724Z" fill="white"/>
<g opacity="0.2">
<path d="M141.078 184.956C139.935 184.832 138.854 184.371 137.973 183.633C137.091 182.895 136.448 181.912 136.125 180.808C135.803 179.705 135.814 178.53 136.159 177.433C136.504 176.336 137.166 175.366 138.062 174.645C138.958 173.925 140.047 173.486 141.193 173.384C142.338 173.283 143.488 173.523 144.496 174.075C145.505 174.627 146.327 175.466 146.86 176.485C147.392 177.505 147.61 178.659 147.486 179.802C147.404 180.561 147.173 181.297 146.806 181.967C146.439 182.636 145.945 183.228 145.349 183.706C144.754 184.185 144.071 184.542 143.338 184.756C142.605 184.97 141.837 185.038 141.078 184.956ZM142.278 173.748C141.204 173.631 140.119 173.836 139.161 174.337C138.203 174.837 137.416 175.611 136.898 176.559C136.38 177.508 136.155 178.588 136.252 179.664C136.348 180.741 136.762 181.764 137.441 182.605C138.119 183.446 139.032 184.067 140.064 184.388C141.095 184.71 142.199 184.719 143.236 184.413C144.272 184.107 145.194 183.5 145.886 182.67C146.577 181.839 147.007 180.822 147.12 179.748C147.27 178.313 146.846 176.877 145.941 175.753C145.036 174.629 143.724 173.908 142.29 173.748H142.278Z" fill="white"/>
</g>
<path d="M142.77 179.406L141.924 177.132L140.61 179.178L138.504 176.952L139.014 180.954L140.268 181.086L141.36 181.206L141.606 181.236L142.698 181.35L143.952 181.488L145.302 177.684L142.77 179.406Z" fill="#00A6FB"/>
<path d="M144.996 120.552L146.478 119.196L147.678 119.328L147.906 117.6L145.734 117.102C145.734 117.102 142.734 116.688 141.666 116.682C141.228 116.682 140.718 116.682 139.5 119.364C139.296 119.844 144.996 120.552 144.996 120.552Z" fill="#EEC1BB"/>
<path d="M193.974 124.332C194.28 123.646 194.665 122.997 195.12 122.4C195.522 122.046 199.182 122.856 199.794 123.354C200.406 123.852 200.112 124.98 200.112 124.98C200.112 124.98 199.092 126.576 198.396 126.492C197.7 126.408 194.166 126.228 193.974 125.97C193.782 125.712 193.974 124.332 193.974 124.332Z" fill="#EEC1BB"/>
</svg>
