<svg width="59" height="60" viewBox="0 0 59 60" fill="none" xmlns="http://www.w3.org/2000/svg">
<mask id="mask0_224_1823" style="mask-type:luminance" maskUnits="userSpaceOnUse" x="0" y="0" width="59" height="60">
<path d="M0.40918 0H58.5914V60H0.40918V0Z" fill="white"/>
</mask>
<g mask="url(#mask0_224_1823)">
<mask id="mask1_224_1823" style="mask-type:luminance" maskUnits="userSpaceOnUse" x="0" y="0" width="59" height="60">
<path d="M14.9505 0H44.0482C47.9044 0 51.6058 1.53129 54.3325 4.25796C57.0591 6.98793 58.5904 10.6861 58.5904 14.5423V45.4248C58.5904 49.281 57.0591 52.9824 54.3325 55.7091C51.6058 58.4358 47.9044 59.9671 44.0482 59.9671H14.9505C11.0943 59.9671 7.39613 58.4358 4.66945 55.7091C1.94278 52.9824 0.408203 49.281 0.408203 45.4248V14.5423C0.408203 10.6861 1.94278 6.98793 4.66945 4.25796C7.39613 1.53129 11.0943 0 14.9505 0Z" fill="white"/>
</mask>
<g mask="url(#mask1_224_1823)">
<path d="M0.408203 0H58.5904V60H0.408203V0Z" fill="#1B82CB"/>
</g>
</g>
<path d="M39.0096 31.2382H24.9811C25.1391 33.135 25.6792 34.5181 26.6013 35.3875C27.5233 36.2503 28.7813 36.6784 30.3817 36.6784C31.6364 36.6784 32.6507 36.4479 33.4245 35.9803C34.205 35.5061 34.834 34.7948 35.3082 33.8463H35.7165L39.3653 36.1779C38.654 37.7058 37.5771 38.9506 36.138 39.9056C34.6957 40.854 32.7791 41.3282 30.3817 41.3282C28.1227 41.3282 26.1732 40.9001 24.5332 40.0373C22.89 39.1779 21.6254 37.9001 20.7396 36.2042C19.8505 34.5115 19.4092 32.4468 19.4092 30.0132C19.4092 27.5302 19.8735 25.4391 20.8054 23.7432C21.744 22.0406 23.0085 20.7728 24.5991 19.9364C26.1962 19.0933 27.991 18.6718 29.9866 18.6718C33.0689 18.6718 35.43 19.4951 37.0733 21.135C38.7132 22.7684 39.5365 25.1658 39.5365 28.3271C39.5365 29.4797 39.497 30.3688 39.418 31.0011L39.0096 31.2382ZM34.2939 27.6949C34.2412 26.0352 33.8526 24.8299 33.1348 24.0725C32.4234 23.3085 31.373 22.9265 29.9866 22.9265C27.2204 22.9265 25.5903 24.517 25.0996 27.6949H34.2939Z" fill="white"/>
</svg>
