<svg width="45" height="45" viewBox="0 0 45 45" fill="none" xmlns="http://www.w3.org/2000/svg">
<rect width="45" height="45" rx="22.5" fill="#F4F4F4"/>
<path d="M28.7271 23.2631C28.6991 20.2311 31.2734 18.756 31.3911 18.6873C29.9332 16.6149 27.6735 16.3317 26.8794 16.3091C24.9815 16.1144 23.1405 17.4164 22.1737 17.4164C21.1876 17.4164 19.6988 16.3279 18.0942 16.3599C16.0294 16.391 14.0977 17.5566 13.0383 19.3666C10.8519 23.0571 12.4825 28.4805 14.5773 31.4637C15.6251 32.9246 16.8495 34.5559 18.4522 34.4985C20.0201 34.4355 20.6058 33.5239 22.4979 33.5239C24.3726 33.5239 24.9226 34.4985 26.5571 34.4618C28.2398 34.4355 29.2993 32.9943 30.3105 31.5201C31.5214 29.8456 32.0077 28.1964 32.027 28.1118C31.9874 28.0986 28.7589 26.8973 28.7271 23.2631Z" fill="black"/>
<path d="M25.6395 14.3467C26.4828 13.3185 27.0598 11.9196 26.8996 10.5C25.6791 10.5527 24.1526 11.3232 23.2736 12.3288C22.496 13.215 21.8013 14.6675 21.9807 16.0335C23.3518 16.1332 24.7596 15.359 25.6395 14.3467Z" fill="black"/>
</svg>
