<svg width="1130" height="1115" viewBox="0 0 1130 1115" fill="none" xmlns="http://www.w3.org/2000/svg">
<path d="M275 137V319L323 222L275 137Z" fill="#D6C7C2" stroke="url(#paint0_linear_252_1897)" stroke-width="2"/>
<path d="M489 268L276 135L325 223.5L425 284.5L489 268Z" fill="#FBF1E5" stroke="url(#paint1_linear_252_1897)" stroke-width="2"/>
<path d="M321.5 273L276 320L324 223L321.5 273Z" fill="#887574" stroke="url(#paint2_linear_252_1897)" stroke-width="2"/>
<path d="M424.5 285L325.5 224.5L323 273L420 332.5L424.5 285Z" fill="#A48779" stroke="url(#paint3_linear_252_1897)" stroke-width="2"/>
<path d="M487.5 268.5L421 333L425.5 285L487.5 268.5Z" fill="#9A7567" stroke="url(#paint4_linear_252_1897)" stroke-width="2"/>
<path d="M852.5 113L446 115L541.5 161.5H804.5L852.5 113Z" fill="#FEF6E9" stroke="url(#paint5_linear_252_1897)" stroke-width="2"/>
<path d="M509 208L448 117.5L541 163L509 208Z" fill="#C6AA9E" stroke="url(#paint6_linear_252_1897)" stroke-width="2"/>
<path d="M719.5 209H509L542.5 163H803.5L719.5 209Z" fill="#D8B394" stroke="url(#paint7_linear_252_1897)" stroke-width="2"/>
<path d="M852 224V115L805.5 162V200L852 224Z" fill="#AFA09B" stroke="url(#paint8_linear_252_1897)" stroke-width="2"/>
<path d="M721.5 210L804.5 162.5V201.5L561 445.5H322.5L275.5 396.5L535.5 394.5L721.5 210Z" fill="#FFFCF9" stroke="url(#paint9_linear_252_1897)" stroke-width="2"/>
<path d="M851 225.5L805 201.5L561 446.5H323.5L373 491.5H478.25H583.5L851 225.5Z" fill="#858081" stroke="url(#paint10_linear_252_1897)" stroke-width="2"/>
<path d="M275 611V398L322.5 448V585.5L275 611Z" fill="#BCB7B1" stroke="url(#paint11_linear_252_1897)" stroke-width="2"/>
<path d="M373 492L324 448V584.5L373 557V492Z" fill="#9E9B96" stroke="url(#paint12_linear_252_1897)" stroke-width="2"/>
<path d="M322.5 586L275.5 612.5L543.5 753V703L322.5 586Z" fill="#67686D" stroke="url(#paint13_linear_252_1897)" stroke-width="2"/>
<path d="M373 557.5L324 585.5L543 701L539 646.5L373 557.5Z" fill="#EDE5DA" stroke="url(#paint14_linear_252_1897)" stroke-width="2"/>
<path d="M805 585.5L544 702V752.5L851 613.5L805 585.5Z" fill="#63666B" stroke="url(#paint15_linear_252_1897)" stroke-width="2"/>
<path d="M753.5 552L539.5 647L544.5 701L803.5 585L753.5 552Z" fill="#FDF5EA" stroke="url(#paint16_linear_252_1897)" stroke-width="2"/>
<path d="M804.5 461V585L852 613.5L854.5 325.5L804.5 461Z" fill="#9FA49E" stroke="url(#paint17_linear_252_1897)" stroke-width="2"/>
<path d="M853.5 323L679.5 494.5L803.5 460.5L853.5 323Z" fill="#FFFFFC" stroke="url(#paint18_linear_252_1897)" stroke-width="2"/>
<path d="M754 495.5H681.5L803 462L754 495.5Z" fill="#9F857A" stroke="url(#paint19_linear_252_1897)" stroke-width="2"/>
<path d="M803.5 462L754.5 496.5V551.5L803.5 583V462Z" fill="#EED6C4" stroke="url(#paint20_linear_252_1897)" stroke-width="2"/>
<path d="M329.383 822L308.883 844L250.383 845.5C237.583 846.7 233.383 857.667 232.883 863C230.483 878.2 240.217 884 245.383 885H292.383V907H246.883C236.083 907.4 233.05 917.5 232.883 922.5C232.083 936.5 243.217 943.333 248.883 945L308.883 946.5L324.883 968H248.883C221.683 960.8 212.217 943 210.883 935C210.217 919.333 209.283 882.2 210.883 859C212.483 835.8 235.55 824.667 246.883 822H329.383Z" fill="url(#paint21_linear_252_1897)"/>
<path d="M363.5 856H343V933H363.5V856Z" fill="url(#paint22_linear_252_1897)"/>
<path d="M343 821V844.5H398C419.585 850.714 424.146 872.505 423.816 888.171C423.685 894.377 423.857 900.631 423.752 906.837C423.465 923.887 413.758 935.598 405.032 941.904C400.672 945.055 395.222 946 389.842 946H343V969L377 967.5L409 966C427.8 962 442.833 937.167 446.5 926V863C436.5 833 410 822.5 398 821H343Z" fill="url(#paint23_linear_252_1897)"/>
<path d="M460 822L480.5 844L539 845.5C551.8 846.7 556 857.667 556.5 863C558.9 878.2 549.167 884 544 885H497V907H542.5C553.3 907.4 556.334 917.5 556.5 922.5C557.3 936.5 546.167 943.333 540.5 945L480.5 946.5L464.5 968H540.5C567.7 960.8 577.167 943 578.5 935C579.167 919.333 580.1 882.2 578.5 859C576.9 835.8 553.834 824.667 542.5 822H460Z" fill="url(#paint24_linear_252_1897)"/>
<path d="M593 822V967H615V907H662V967H686V822H662V882.5H615V822H593Z" fill="url(#paint25_linear_252_1897)"/>
<path d="M700 926V820H724.5V926C729.704 942.355 743.659 945.009 751.358 944.232C752.445 944.123 753.546 944.19 754.623 944.374C766.304 946.373 775.995 933.17 779.5 926V820H802V934C795.058 957.141 766.951 966.956 751.65 969.273C750.552 969.439 749.43 969.459 748.326 969.334C716.699 965.764 702.457 939.104 700 926Z" fill="url(#paint26_linear_252_1897)"/>
<path d="M816 821V968H859L893.088 966.024C893.362 966.008 893.64 965.969 893.907 965.905C913.386 961.207 919.528 938.859 920.393 926.075C920.509 924.361 920.701 922.651 920.777 920.935C921.343 908.224 909.753 898.783 903.5 895.5C913.1 891.5 917.5 873.167 918.5 864.5C920.647 847.934 908.032 834.427 896.847 826.55C890.987 822.423 883.78 821 876.612 821H816Z" fill="url(#paint27_linear_252_1897)"/>
<path d="M837 842V944.5H881.5C894.7 940.5 898 928.5 898 923C897.6 910.6 885.833 905.167 880 904H845V882H880C892.8 878.4 895.667 867.167 895.5 862C898.3 850.8 885 844 878 842H837Z" fill="#13101E"/>
<defs>
<linearGradient id="paint0_linear_252_1897" x1="299" y1="137" x2="299" y2="319" gradientUnits="userSpaceOnUse">
<stop stop-color="#48BDFA"/>
<stop offset="1" stop-color="#1A3D4F"/>
</linearGradient>
<linearGradient id="paint1_linear_252_1897" x1="382.5" y1="135" x2="382.5" y2="284.5" gradientUnits="userSpaceOnUse">
<stop stop-color="#48BDFA"/>
<stop offset="1" stop-color="#1A3D4F"/>
</linearGradient>
<linearGradient id="paint2_linear_252_1897" x1="300" y1="223" x2="300" y2="320" gradientUnits="userSpaceOnUse">
<stop stop-color="#48BDFA"/>
<stop offset="1" stop-color="#1A3D4F"/>
</linearGradient>
<linearGradient id="paint3_linear_252_1897" x1="373.75" y1="224.5" x2="373.75" y2="332.5" gradientUnits="userSpaceOnUse">
<stop stop-color="#48BDFA"/>
<stop offset="1" stop-color="#1A3D4F"/>
</linearGradient>
<linearGradient id="paint4_linear_252_1897" x1="454.25" y1="268.5" x2="454.25" y2="333" gradientUnits="userSpaceOnUse">
<stop stop-color="#48BDFA"/>
<stop offset="1" stop-color="#1A3D4F"/>
</linearGradient>
<linearGradient id="paint5_linear_252_1897" x1="649.25" y1="113" x2="649.25" y2="161.5" gradientUnits="userSpaceOnUse">
<stop stop-color="#48BDFA"/>
<stop offset="1" stop-color="#1A3D4F"/>
</linearGradient>
<linearGradient id="paint6_linear_252_1897" x1="494.5" y1="117.5" x2="494.5" y2="208" gradientUnits="userSpaceOnUse">
<stop stop-color="#48BDFA"/>
<stop offset="1" stop-color="#1A3D4F"/>
</linearGradient>
<linearGradient id="paint7_linear_252_1897" x1="656.25" y1="163" x2="656.25" y2="209" gradientUnits="userSpaceOnUse">
<stop stop-color="#48BDFA"/>
<stop offset="1" stop-color="#1A3D4F"/>
</linearGradient>
<linearGradient id="paint8_linear_252_1897" x1="828.75" y1="115" x2="828.75" y2="224" gradientUnits="userSpaceOnUse">
<stop stop-color="#48BDFA"/>
<stop offset="1" stop-color="#1A3D4F"/>
</linearGradient>
<linearGradient id="paint9_linear_252_1897" x1="540" y1="162.5" x2="540" y2="445.5" gradientUnits="userSpaceOnUse">
<stop stop-color="#48BDFA"/>
<stop offset="1" stop-color="#1A3D4F"/>
</linearGradient>
<linearGradient id="paint10_linear_252_1897" x1="587.25" y1="201.5" x2="587.25" y2="491.5" gradientUnits="userSpaceOnUse">
<stop stop-color="#48BDFA"/>
<stop offset="1" stop-color="#1A3D4F"/>
</linearGradient>
<linearGradient id="paint11_linear_252_1897" x1="298.75" y1="398" x2="298.75" y2="611" gradientUnits="userSpaceOnUse">
<stop stop-color="#48BDFA"/>
<stop offset="1" stop-color="#1A3D4F"/>
</linearGradient>
<linearGradient id="paint12_linear_252_1897" x1="348.5" y1="448" x2="348.5" y2="584.5" gradientUnits="userSpaceOnUse">
<stop stop-color="#48BDFA"/>
<stop offset="1" stop-color="#1A3D4F"/>
</linearGradient>
<linearGradient id="paint13_linear_252_1897" x1="409.5" y1="586" x2="409.5" y2="753" gradientUnits="userSpaceOnUse">
<stop stop-color="#48BDFA"/>
<stop offset="1" stop-color="#1A3D4F"/>
</linearGradient>
<linearGradient id="paint14_linear_252_1897" x1="433.5" y1="557.5" x2="433.5" y2="701" gradientUnits="userSpaceOnUse">
<stop stop-color="#48BDFA"/>
<stop offset="1" stop-color="#1A3D4F"/>
</linearGradient>
<linearGradient id="paint15_linear_252_1897" x1="697.5" y1="585.5" x2="697.5" y2="752.5" gradientUnits="userSpaceOnUse">
<stop stop-color="#48BDFA"/>
<stop offset="1" stop-color="#1A3D4F"/>
</linearGradient>
<linearGradient id="paint16_linear_252_1897" x1="671.5" y1="552" x2="671.5" y2="701" gradientUnits="userSpaceOnUse">
<stop stop-color="#48BDFA"/>
<stop offset="1" stop-color="#1A3D4F"/>
</linearGradient>
<linearGradient id="paint17_linear_252_1897" x1="829.5" y1="325.5" x2="829.5" y2="613.5" gradientUnits="userSpaceOnUse">
<stop stop-color="#48BDFA"/>
<stop offset="1" stop-color="#1A3D4F"/>
</linearGradient>
<linearGradient id="paint18_linear_252_1897" x1="766.5" y1="323" x2="766.5" y2="494.5" gradientUnits="userSpaceOnUse">
<stop stop-color="#48BDFA"/>
<stop offset="1" stop-color="#1A3D4F"/>
</linearGradient>
<linearGradient id="paint19_linear_252_1897" x1="742.25" y1="462" x2="742.25" y2="495.5" gradientUnits="userSpaceOnUse">
<stop stop-color="#48BDFA"/>
<stop offset="1" stop-color="#1A3D4F"/>
</linearGradient>
<linearGradient id="paint20_linear_252_1897" x1="779" y1="462" x2="779" y2="583" gradientUnits="userSpaceOnUse">
<stop stop-color="#48BDFA"/>
<stop offset="1" stop-color="#1A3D4F"/>
</linearGradient>
<linearGradient id="paint21_linear_252_1897" x1="269.692" y1="822" x2="269.692" y2="968" gradientUnits="userSpaceOnUse">
<stop stop-color="#F8ECE8"/>
<stop offset="1" stop-color="#CB9A87"/>
</linearGradient>
<linearGradient id="paint22_linear_252_1897" x1="353.25" y1="856" x2="353.25" y2="933" gradientUnits="userSpaceOnUse">
<stop stop-color="#F8D9D4"/>
<stop offset="1" stop-color="#E7B8A8"/>
</linearGradient>
<linearGradient id="paint23_linear_252_1897" x1="394.75" y1="821" x2="394.75" y2="969" gradientUnits="userSpaceOnUse">
<stop stop-color="#F9E7D7"/>
<stop offset="1" stop-color="#CAA394"/>
</linearGradient>
<linearGradient id="paint24_linear_252_1897" x1="519.692" y1="822" x2="519.692" y2="968" gradientUnits="userSpaceOnUse">
<stop stop-color="#F8ECE8"/>
<stop offset="1" stop-color="#CB9A87"/>
</linearGradient>
<linearGradient id="paint25_linear_252_1897" x1="639.5" y1="822" x2="639.5" y2="967" gradientUnits="userSpaceOnUse">
<stop stop-color="#F6ECE2"/>
<stop offset="1" stop-color="#AEABA4"/>
</linearGradient>
<linearGradient id="paint26_linear_252_1897" x1="751" y1="820" x2="751" y2="969.5" gradientUnits="userSpaceOnUse">
<stop stop-color="#F7EAE4"/>
<stop offset="1" stop-color="#B2B1AD"/>
</linearGradient>
<linearGradient id="paint27_linear_252_1897" x1="868.399" y1="821" x2="868.399" y2="968" gradientUnits="userSpaceOnUse">
<stop stop-color="#EEE7DB"/>
<stop offset="1" stop-color="#A4A6A5"/>
</linearGradient>
</defs>
</svg>
